<?xml version="1.0" encoding="utf-8"?>
<!-- Generator: Adobe Illustrator 27.0.1, SVG Export Plug-In . SVG Version: 6.00 Build 0)  -->
<svg version="1.1"
	 id="svg72" xmlns:sodipodi="http://sodipodi.sourceforge.net/DTD/sodipodi-0.dtd" xmlns:inkscape="http://www.inkscape.org/namespaces/inkscape" xmlns:svg="http://www.w3.org/2000/svg" inkscape:version="1.2.1 (9c6d41e410, 2022-07-14)" sodipodi:docname="milliejames.svg"
	 xmlns="http://www.w3.org/2000/svg" xmlns:xlink="http://www.w3.org/1999/xlink" x="0px" y="0px" viewBox="0 0 6000 3900"
	 style="enable-background:new 0 0 6000 3900;" xml:space="preserve">
<style type="text/css">
	.st0{fill:#FFFFFF;fill-opacity:0;}
	.st1{fill:#FFFFFF;}
	.st2{fill:#431A11;}
	.st3{fill:#EFC083;}
	.st4{fill:#F27276;fill-opacity:0.3176;}
	.st5{fill:#F27276;}
	.st6{fill:none;}
</style>
<defs>
	<meshgradient  gradientUnits="userSpaceOnUse" id="meshgradient1716" inkscape:collect="always" x="3041.0989" y="2278.7656">
		<meshrow  id="meshrow1718">
			<meshpatch  id="meshpatch1720">
				<stop  id="stop1722" path="c 0,314.378  -130.414,569.232  -291.287,569.232" style="stop-color:#ffffff;stop-opacity:1">
					</stop>
				<stop  id="stop1724" path="l 0,-569.232" style="stop-color:#431a11;stop-opacity:1"></stop>
				<stop  id="stop1726" path="l 0,0" style="stop-color:#ffffff;stop-opacity:1"></stop>
				<stop  id="stop1728" path="l 291.287,0" style="stop-color:#431a11;stop-opacity:1"></stop>
			</meshpatch>
			<meshpatch  id="meshpatch1730">
				<stop  id="stop1732" path="c -160.873,0  -291.287,-254.854  -291.287,-569.232"></stop>
				<stop  id="stop1734" path="l 291.287,0" style="stop-color:#ffffff;stop-opacity:1"></stop>
				<stop  id="stop1736" path="l 0,0" style="stop-color:#431a11;stop-opacity:1"></stop>
			</meshpatch>
			<meshpatch  id="meshpatch1738">
				<stop  id="stop1740" path="c 0,-314.378  130.414,-569.232  291.287,-569.232"></stop>
				<stop  id="stop1742" path="l 0,569.232" style="stop-color:#431a11;stop-opacity:1"></stop>
				<stop  id="stop1744" path="l 0,0" style="stop-color:#ffffff;stop-opacity:1"></stop>
			</meshpatch>
			<meshpatch  id="meshpatch1746">
				<stop  id="stop1748" path="c 160.873,0  291.287,254.854  291.287,569.232"></stop>
				<stop  id="stop1750" path="l -291.287,0" style="stop-color:#ffffff;stop-opacity:1"></stop>
				<stop  id="stop1752" path="l 0,0" style="stop-color:#431a11;stop-opacity:1"></stop>
			</meshpatch>
		</meshrow>
	</meshgradient>
</defs>
<sodipodi:namedview  bordercolor="#999999" borderopacity="1" id="namedview74" inkscape:current-layer="svg72" inkscape:cx="63.113662" inkscape:cy="3043.481" inkscape:deskcolor="#d1d1d1" inkscape:pagecheckerboard="0" inkscape:pageopacity="0" inkscape:showpageshadow="0" inkscape:window-height="1009" inkscape:window-maximized="1" inkscape:window-width="1920" inkscape:window-x="-8" inkscape:window-y="-8" inkscape:zoom="0.071299935" pagecolor="#ffffff" showgrid="false">
	</sodipodi:namedview>
<script  id="mesh_polyfill" type="text/javascript">
	!function(){const t=&quot;http://www.w3.org/2000/svg&quot;,e=&quot;http://www.w3.org/1999/xlink&quot;,s=&quot;http://www.w3.org/1999/xhtml&quot;,r=2;if(document.createElementNS(t,&quot;meshgradient&quot;).x)return;const n=(t,e,s,r)=&gt;{let n=new x(.5*(e.x+s.x),.5*(e.y+s.y)),o=new x(.5*(t.x+e.x),.5*(t.y+e.y)),i=new x(.5*(s.x+r.x),.5*(s.y+r.y)),a=new x(.5*(n.x+o.x),.5*(n.y+o.y)),h=new x(.5*(n.x+i.x),.5*(n.y+i.y)),l=new x(.5*(a.x+h.x),.5*(a.y+h.y));return[[t,o,a,l],[l,h,i,r]]},o=t=&gt;{let e=t[0].distSquared(t[1]),s=t[2].distSquared(t[3]),r=.25*t[0].distSquared(t[2]),n=.25*t[1].distSquared(t[3]),o=e&gt;s?e:s,i=r&gt;n?r:n;return 18*(o&gt;i?o:i)},i=(t,e)=&gt;Math.sqrt(t.distSquared(e)),a=(t,e)=&gt;t.scale(2/3).add(e.scale(1/3)),h=t=&gt;{let e,s,r,n,o,i,a,h=new g;return t.match(/(\w+\(\s*[^)]+\))+/g).forEach(t=&gt;{let l=t.match(/[\w.-]+/g),d=l.shift();switch(d){case&quot;translate&quot;:2===l.length?e=new g(1,0,0,1,l[0],l[1]):(console.error(&quot;mesh.js: translate does not have 2 arguments!&quot;),e=new g(1,0,0,1,0,0)),h=h.append(e);break;case&quot;scale&quot;:1===l.length?s=new g(l[0],0,0,l[0],0,0):2===l.length?s=new g(l[0],0,0,l[1],0,0):(console.error(&quot;mesh.js: scale does not have 1 or 2 arguments!&quot;),s=new g(1,0,0,1,0,0)),h=h.append(s);break;case&quot;rotate&quot;:if(3===l.length&amp;&amp;(e=new g(1,0,0,1,l[1],l[2]),h=h.append(e)),l[0]){r=l[0]*Math.PI/180;let t=Math.cos(r),e=Math.sin(r);Math.abs(t)&lt;1e-16&amp;&amp;(t=0),Math.abs(e)&lt;1e-16&amp;&amp;(e=0),a=new g(t,e,-e,t,0,0),h=h.append(a)}else console.error(&quot;math.js: No argument to rotate transform!&quot;);3===l.length&amp;&amp;(e=new g(1,0,0,1,-l[1],-l[2]),h=h.append(e));break;case&quot;skewX&quot;:l[0]?(r=l[0]*Math.PI/180,n=Math.tan(r),o=new g(1,0,n,1,0,0),h=h.append(o)):console.error(&quot;math.js: No argument to skewX transform!&quot;);break;case&quot;skewY&quot;:l[0]?(r=l[0]*Math.PI/180,n=Math.tan(r),i=new g(1,n,0,1,0,0),h=h.append(i)):console.error(&quot;math.js: No argument to skewY transform!&quot;);break;case&quot;matrix&quot;:6===l.length?h=h.append(new g(...l)):console.error(&quot;math.js: Incorrect number of arguments for matrix!&quot;);break;default:console.error(&quot;mesh.js: Unhandled transform type: &quot;+d)}}),h},l=t=&gt;{let e=[],s=t.split(/[ ,]+/);for(let t=0,r=s.length-1;t&lt;r;t+=2)e.push(new x(parseFloat(s[t]),parseFloat(s[t+1])));return e},d=(t,e)=&gt;{for(let s in e)t.setAttribute(s,e[s])},c=(t,e,s,r,n)=&gt;{let o,i,a=[0,0,0,0];for(let h=0;h&lt;3;++h)e[h]&lt;t[h]&amp;&amp;e[h]&lt;s[h]||t[h]&lt;e[h]&amp;&amp;s[h]&lt;e[h]?a[h]=0:(a[h]=.5*((e[h]-t[h])/r+(s[h]-e[h])/n),o=Math.abs(3*(e[h]-t[h])/r),i=Math.abs(3*(s[h]-e[h])/n),a[h]&gt;o?a[h]=o:a[h]&gt;i&amp;&amp;(a[h]=i));return a},u=[[1,0,0,0,0,0,0,0,0,0,0,0,0,0,0,0],[0,0,0,0,1,0,0,0,0,0,0,0,0,0,0,0],[-3,3,0,0,-2,-1,0,0,0,0,0,0,0,0,0,0],[2,-2,0,0,1,1,0,0,0,0,0,0,0,0,0,0],[0,0,0,0,0,0,0,0,1,0,0,0,0,0,0,0],[0,0,0,0,0,0,0,0,0,0,0,0,1,0,0,0],[0,0,0,0,0,0,0,0,-3,3,0,0,-2,-1,0,0],[0,0,0,0,0,0,0,0,2,-2,0,0,1,1,0,0],[-3,0,3,0,0,0,0,0,-2,0,-1,0,0,0,0,0],[0,0,0,0,-3,0,3,0,0,0,0,0,-2,0,-1,0],[9,-9,-9,9,6,3,-6,-3,6,-6,3,-3,4,2,2,1],[-6,6,6,-6,-3,-3,3,3,-4,4,-2,2,-2,-2,-1,-1],[2,0,-2,0,0,0,0,0,1,0,1,0,0,0,0,0],[0,0,0,0,2,0,-2,0,0,0,0,0,1,0,1,0],[-6,6,6,-6,-4,-2,4,2,-3,3,-3,3,-2,-1,-2,-1],[4,-4,-4,4,2,2,-2,-2,2,-2,2,-2,1,1,1,1]],f=t=&gt;{let e=[];for(let s=0;s&lt;16;++s){e[s]=0;for(let r=0;r&lt;16;++r)e[s]+=u[s][r]*t[r]}return e},p=(t,e,s)=&gt;{const r=e*e,n=s*s,o=e*e*e,i=s*s*s;return t[0]+t[1]*e+t[2]*r+t[3]*o+t[4]*s+t[5]*s*e+t[6]*s*r+t[7]*s*o+t[8]*n+t[9]*n*e+t[10]*n*r+t[11]*n*o+t[12]*i+t[13]*i*e+t[14]*i*r+t[15]*i*o},y=t=&gt;{let e=[],s=[],r=[];for(let s=0;s&lt;4;++s)e[s]=[],e[s][0]=n(t[0][s],t[1][s],t[2][s],t[3][s]),e[s][1]=[],e[s][1].push(...n(...e[s][0][0])),e[s][1].push(...n(...e[s][0][1])),e[s][2]=[],e[s][2].push(...n(...e[s][1][0])),e[s][2].push(...n(...e[s][1][1])),e[s][2].push(...n(...e[s][1][2])),e[s][2].push(...n(...e[s][1][3]));for(let t=0;t&lt;8;++t){s[t]=[];for(let r=0;r&lt;4;++r)s[t][r]=[],s[t][r][0]=n(e[0][2][t][r],e[1][2][t][r],e[2][2][t][r],e[3][2][t][r]),s[t][r][1]=[],s[t][r][1].push(...n(...s[t][r][0][0])),s[t][r][1].push(...n(...s[t][r][0][1])),s[t][r][2]=[],s[t][r][2].push(...n(...s[t][r][1][0])),s[t][r][2].push(...n(...s[t][r][1][1])),s[t][r][2].push(...n(...s[t][r][1][2])),s[t][r][2].push(...n(...s[t][r][1][3]))}for(let t=0;t&lt;8;++t){r[t]=[];for(let e=0;e&lt;8;++e)r[t][e]=[],r[t][e][0]=s[t][0][2][e],r[t][e][1]=s[t][1][2][e],r[t][e][2]=s[t][2][2][e],r[t][e][3]=s[t][3][2][e]}return r};class x{constructor(t,e){this.x=t||0,this.y=e||0}toString(){return`(x=${this.x}, y=${this.y})`}clone(){return new x(this.x,this.y)}add(t){return new x(this.x+t.x,this.y+t.y)}scale(t){return void 0===t.x?new x(this.x*t,this.y*t):new x(this.x*t.x,this.y*t.y)}distSquared(t){let e=this.x-t.x,s=this.y-t.y;return e*e+s*s}transform(t){let e=this.x*t.a+this.y*t.c+t.e,s=this.x*t.b+this.y*t.d+t.f;return new x(e,s)}}class g{constructor(t,e,s,r,n,o){void 0===t?(this.a=1,this.b=0,this.c=0,this.d=1,this.e=0,this.f=0):(this.a=t,this.b=e,this.c=s,this.d=r,this.e=n,this.f=o)}toString(){return`affine: ${this.a} ${this.c} ${this.e} \n       ${this.b} ${this.d} ${this.f}`}append(t){t instanceof g||console.error(&quot;mesh.js: argument to Affine.append is not affine!&quot;);let e=this.a*t.a+this.c*t.b,s=this.b*t.a+this.d*t.b,r=this.a*t.c+this.c*t.d,n=this.b*t.c+this.d*t.d,o=this.a*t.e+this.c*t.f+this.e,i=this.b*t.e+this.d*t.f+this.f;return new g(e,s,r,n,o,i)}}class w{constructor(t,e){this.nodes=t,this.colors=e}paintCurve(t,e){if(o(this.nodes)&gt;r){const s=n(...this.nodes);let r=[[],[]],o=[[],[]];for(let t=0;t&lt;4;++t)r[0][t]=this.colors[0][t],r[1][t]=(this.colors[0][t]+this.colors[1][t])/2,o[0][t]=r[1][t],o[1][t]=this.colors[1][t];let i=new w(s[0],r),a=new w(s[1],o);i.paintCurve(t,e),a.paintCurve(t,e)}else{let s=Math.round(this.nodes[0].x);if(s&gt;=0&amp;&amp;s&lt;e){let r=4*(~~this.nodes[0].y*e+s);t[r]=Math.round(this.colors[0][0]),t[r+1]=Math.round(this.colors[0][1]),t[r+2]=Math.round(this.colors[0][2]),t[r+3]=Math.round(this.colors[0][3])}}}}class m{constructor(t,e){this.nodes=t,this.colors=e}split(){let t=[[],[],[],[]],e=[[],[],[],[]],s=[[[],[]],[[],[]]],r=[[[],[]],[[],[]]];for(let s=0;s&lt;4;++s){const r=n(this.nodes[0][s],this.nodes[1][s],this.nodes[2][s],this.nodes[3][s]);t[0][s]=r[0][0],t[1][s]=r[0][1],t[2][s]=r[0][2],t[3][s]=r[0][3],e[0][s]=r[1][0],e[1][s]=r[1][1],e[2][s]=r[1][2],e[3][s]=r[1][3]}for(let t=0;t&lt;4;++t)s[0][0][t]=this.colors[0][0][t],s[0][1][t]=this.colors[0][1][t],s[1][0][t]=(this.colors[0][0][t]+this.colors[1][0][t])/2,s[1][1][t]=(this.colors[0][1][t]+this.colors[1][1][t])/2,r[0][0][t]=s[1][0][t],r[0][1][t]=s[1][1][t],r[1][0][t]=this.colors[1][0][t],r[1][1][t]=this.colors[1][1][t];return[new m(t,s),new m(e,r)]}paint(t,e){let s,n=!1;for(let t=0;t&lt;4;++t)if((s=o([this.nodes[0][t],this.nodes[1][t],this.nodes[2][t],this.nodes[3][t]]))&gt;r){n=!0;break}if(n){let s=this.split();s[0].paint(t,e),s[1].paint(t,e)}else{new w([...this.nodes[0]],[...this.colors[0]]).paintCurve(t,e)}}}class b{constructor(t){this.readMesh(t),this.type=t.getAttribute(&quot;type&quot;)||&quot;bilinear&quot;}readMesh(t){let e=[[]],s=[[]],r=Number(t.getAttribute(&quot;x&quot;)),n=Number(t.getAttribute(&quot;y&quot;));e[0][0]=new x(r,n);let o=t.children;for(let t=0,r=o.length;t&lt;r;++t){e[3*t+1]=[],e[3*t+2]=[],e[3*t+3]=[],s[t+1]=[];let r=o[t].children;for(let n=0,o=r.length;n&lt;o;++n){let o=r[n].children;for(let r=0,i=o.length;r&lt;i;++r){let i=r;0!==t&amp;&amp;++i;let h,d=o[r].getAttribute(&quot;path&quot;),c=&quot;l&quot;;null!=d&amp;&amp;(c=(h=d.match(/\s*([lLcC])\s*(.*)/))[1]);let u=l(h[2]);switch(c){case&quot;l&quot;:0===i?(e[3*t][3*n+3]=u[0].add(e[3*t][3*n]),e[3*t][3*n+1]=a(e[3*t][3*n],e[3*t][3*n+3]),e[3*t][3*n+2]=a(e[3*t][3*n+3],e[3*t][3*n])):1===i?(e[3*t+3][3*n+3]=u[0].add(e[3*t][3*n+3]),e[3*t+1][3*n+3]=a(e[3*t][3*n+3],e[3*t+3][3*n+3]),e[3*t+2][3*n+3]=a(e[3*t+3][3*n+3],e[3*t][3*n+3])):2===i?(0===n&amp;&amp;(e[3*t+3][3*n+0]=u[0].add(e[3*t+3][3*n+3])),e[3*t+3][3*n+1]=a(e[3*t+3][3*n],e[3*t+3][3*n+3]),e[3*t+3][3*n+2]=a(e[3*t+3][3*n+3],e[3*t+3][3*n])):(e[3*t+1][3*n]=a(e[3*t][3*n],e[3*t+3][3*n]),e[3*t+2][3*n]=a(e[3*t+3][3*n],e[3*t][3*n]));break;case&quot;L&quot;:0===i?(e[3*t][3*n+3]=u[0],e[3*t][3*n+1]=a(e[3*t][3*n],e[3*t][3*n+3]),e[3*t][3*n+2]=a(e[3*t][3*n+3],e[3*t][3*n])):1===i?(e[3*t+3][3*n+3]=u[0],e[3*t+1][3*n+3]=a(e[3*t][3*n+3],e[3*t+3][3*n+3]),e[3*t+2][3*n+3]=a(e[3*t+3][3*n+3],e[3*t][3*n+3])):2===i?(0===n&amp;&amp;(e[3*t+3][3*n+0]=u[0]),e[3*t+3][3*n+1]=a(e[3*t+3][3*n],e[3*t+3][3*n+3]),e[3*t+3][3*n+2]=a(e[3*t+3][3*n+3],e[3*t+3][3*n])):(e[3*t+1][3*n]=a(e[3*t][3*n],e[3*t+3][3*n]),e[3*t+2][3*n]=a(e[3*t+3][3*n],e[3*t][3*n]));break;case&quot;c&quot;:0===i?(e[3*t][3*n+1]=u[0].add(e[3*t][3*n]),e[3*t][3*n+2]=u[1].add(e[3*t][3*n]),e[3*t][3*n+3]=u[2].add(e[3*t][3*n])):1===i?(e[3*t+1][3*n+3]=u[0].add(e[3*t][3*n+3]),e[3*t+2][3*n+3]=u[1].add(e[3*t][3*n+3]),e[3*t+3][3*n+3]=u[2].add(e[3*t][3*n+3])):2===i?(e[3*t+3][3*n+2]=u[0].add(e[3*t+3][3*n+3]),e[3*t+3][3*n+1]=u[1].add(e[3*t+3][3*n+3]),0===n&amp;&amp;(e[3*t+3][3*n+0]=u[2].add(e[3*t+3][3*n+3]))):(e[3*t+2][3*n]=u[0].add(e[3*t+3][3*n]),e[3*t+1][3*n]=u[1].add(e[3*t+3][3*n]));break;case&quot;C&quot;:0===i?(e[3*t][3*n+1]=u[0],e[3*t][3*n+2]=u[1],e[3*t][3*n+3]=u[2]):1===i?(e[3*t+1][3*n+3]=u[0],e[3*t+2][3*n+3]=u[1],e[3*t+3][3*n+3]=u[2]):2===i?(e[3*t+3][3*n+2]=u[0],e[3*t+3][3*n+1]=u[1],0===n&amp;&amp;(e[3*t+3][3*n+0]=u[2])):(e[3*t+2][3*n]=u[0],e[3*t+1][3*n]=u[1]);break;default:console.error(&quot;mesh.js: &quot;+c+&quot; invalid path type.&quot;)}if(0===t&amp;&amp;0===n||r&gt;0){let e=window.getComputedStyle(o[r]).stopColor.match(/^rgb\s*\(\s*(\d+)\s*,\s*(\d+)\s*,\s*(\d+)\s*\)$/i),a=window.getComputedStyle(o[r]).stopOpacity,h=255;a&amp;&amp;(h=Math.floor(255*a)),e&amp;&amp;(0===i?(s[t][n]=[],s[t][n][0]=Math.floor(e[1]),s[t][n][1]=Math.floor(e[2]),s[t][n][2]=Math.floor(e[3]),s[t][n][3]=h):1===i?(s[t][n+1]=[],s[t][n+1][0]=Math.floor(e[1]),s[t][n+1][1]=Math.floor(e[2]),s[t][n+1][2]=Math.floor(e[3]),s[t][n+1][3]=h):2===i?(s[t+1][n+1]=[],s[t+1][n+1][0]=Math.floor(e[1]),s[t+1][n+1][1]=Math.floor(e[2]),s[t+1][n+1][2]=Math.floor(e[3]),s[t+1][n+1][3]=h):3===i&amp;&amp;(s[t+1][n]=[],s[t+1][n][0]=Math.floor(e[1]),s[t+1][n][1]=Math.floor(e[2]),s[t+1][n][2]=Math.floor(e[3]),s[t+1][n][3]=h))}}e[3*t+1][3*n+1]=new x,e[3*t+1][3*n+2]=new x,e[3*t+2][3*n+1]=new x,e[3*t+2][3*n+2]=new x,e[3*t+1][3*n+1].x=(-4*e[3*t][3*n].x+6*(e[3*t][3*n+1].x+e[3*t+1][3*n].x)+-2*(e[3*t][3*n+3].x+e[3*t+3][3*n].x)+3*(e[3*t+3][3*n+1].x+e[3*t+1][3*n+3].x)+-1*e[3*t+3][3*n+3].x)/9,e[3*t+1][3*n+2].x=(-4*e[3*t][3*n+3].x+6*(e[3*t][3*n+2].x+e[3*t+1][3*n+3].x)+-2*(e[3*t][3*n].x+e[3*t+3][3*n+3].x)+3*(e[3*t+3][3*n+2].x+e[3*t+1][3*n].x)+-1*e[3*t+3][3*n].x)/9,e[3*t+2][3*n+1].x=(-4*e[3*t+3][3*n].x+6*(e[3*t+3][3*n+1].x+e[3*t+2][3*n].x)+-2*(e[3*t+3][3*n+3].x+e[3*t][3*n].x)+3*(e[3*t][3*n+1].x+e[3*t+2][3*n+3].x)+-1*e[3*t][3*n+3].x)/9,e[3*t+2][3*n+2].x=(-4*e[3*t+3][3*n+3].x+6*(e[3*t+3][3*n+2].x+e[3*t+2][3*n+3].x)+-2*(e[3*t+3][3*n].x+e[3*t][3*n+3].x)+3*(e[3*t][3*n+2].x+e[3*t+2][3*n].x)+-1*e[3*t][3*n].x)/9,e[3*t+1][3*n+1].y=(-4*e[3*t][3*n].y+6*(e[3*t][3*n+1].y+e[3*t+1][3*n].y)+-2*(e[3*t][3*n+3].y+e[3*t+3][3*n].y)+3*(e[3*t+3][3*n+1].y+e[3*t+1][3*n+3].y)+-1*e[3*t+3][3*n+3].y)/9,e[3*t+1][3*n+2].y=(-4*e[3*t][3*n+3].y+6*(e[3*t][3*n+2].y+e[3*t+1][3*n+3].y)+-2*(e[3*t][3*n].y+e[3*t+3][3*n+3].y)+3*(e[3*t+3][3*n+2].y+e[3*t+1][3*n].y)+-1*e[3*t+3][3*n].y)/9,e[3*t+2][3*n+1].y=(-4*e[3*t+3][3*n].y+6*(e[3*t+3][3*n+1].y+e[3*t+2][3*n].y)+-2*(e[3*t+3][3*n+3].y+e[3*t][3*n].y)+3*(e[3*t][3*n+1].y+e[3*t+2][3*n+3].y)+-1*e[3*t][3*n+3].y)/9,e[3*t+2][3*n+2].y=(-4*e[3*t+3][3*n+3].y+6*(e[3*t+3][3*n+2].y+e[3*t+2][3*n+3].y)+-2*(e[3*t+3][3*n].y+e[3*t][3*n+3].y)+3*(e[3*t][3*n+2].y+e[3*t+2][3*n].y)+-1*e[3*t][3*n].y)/9}}this.nodes=e,this.colors=s}paintMesh(t,e){let s=(this.nodes.length-1)/3,r=(this.nodes[0].length-1)/3;if(&quot;bilinear&quot;===this.type||s&lt;2||r&lt;2){let n;for(let o=0;o&lt;s;++o)for(let s=0;s&lt;r;++s){let r=[];for(let t=3*o,e=3*o+4;t&lt;e;++t)r.push(this.nodes[t].slice(3*s,3*s+4));let i=[];i.push(this.colors[o].slice(s,s+2)),i.push(this.colors[o+1].slice(s,s+2)),(n=new m(r,i)).paint(t,e)}}else{let n,o,a,h,l,d,u;const x=s,g=r;s++,r++;let w=new Array(s);for(let t=0;t&lt;s;++t){w[t]=new Array(r);for(let e=0;e&lt;r;++e)w[t][e]=[],w[t][e][0]=this.nodes[3*t][3*e],w[t][e][1]=this.colors[t][e]}for(let t=0;t&lt;s;++t)for(let e=0;e&lt;r;++e)0!==t&amp;&amp;t!==x&amp;&amp;(n=i(w[t-1][e][0],w[t][e][0]),o=i(w[t+1][e][0],w[t][e][0]),w[t][e][2]=c(w[t-1][e][1],w[t][e][1],w[t+1][e][1],n,o)),0!==e&amp;&amp;e!==g&amp;&amp;(n=i(w[t][e-1][0],w[t][e][0]),o=i(w[t][e+1][0],w[t][e][0]),w[t][e][3]=c(w[t][e-1][1],w[t][e][1],w[t][e+1][1],n,o));for(let t=0;t&lt;r;++t){w[0][t][2]=[],w[x][t][2]=[];for(let e=0;e&lt;4;++e)n=i(w[1][t][0],w[0][t][0]),o=i(w[x][t][0],w[x-1][t][0]),w[0][t][2][e]=n&gt;0?2*(w[1][t][1][e]-w[0][t][1][e])/n-w[1][t][2][e]:0,w[x][t][2][e]=o&gt;0?2*(w[x][t][1][e]-w[x-1][t][1][e])/o-w[x-1][t][2][e]:0}for(let t=0;t&lt;s;++t){w[t][0][3]=[],w[t][g][3]=[];for(let e=0;e&lt;4;++e)n=i(w[t][1][0],w[t][0][0]),o=i(w[t][g][0],w[t][g-1][0]),w[t][0][3][e]=n&gt;0?2*(w[t][1][1][e]-w[t][0][1][e])/n-w[t][1][3][e]:0,w[t][g][3][e]=o&gt;0?2*(w[t][g][1][e]-w[t][g-1][1][e])/o-w[t][g-1][3][e]:0}for(let s=0;s&lt;x;++s)for(let r=0;r&lt;g;++r){let n=i(w[s][r][0],w[s+1][r][0]),o=i(w[s][r+1][0],w[s+1][r+1][0]),c=i(w[s][r][0],w[s][r+1][0]),x=i(w[s+1][r][0],w[s+1][r+1][0]),g=[[],[],[],[]];for(let t=0;t&lt;4;++t){(d=[])[0]=w[s][r][1][t],d[1]=w[s+1][r][1][t],d[2]=w[s][r+1][1][t],d[3]=w[s+1][r+1][1][t],d[4]=w[s][r][2][t]*n,d[5]=w[s+1][r][2][t]*n,d[6]=w[s][r+1][2][t]*o,d[7]=w[s+1][r+1][2][t]*o,d[8]=w[s][r][3][t]*c,d[9]=w[s+1][r][3][t]*x,d[10]=w[s][r+1][3][t]*c,d[11]=w[s+1][r+1][3][t]*x,d[12]=0,d[13]=0,d[14]=0,d[15]=0,u=f(d);for(let e=0;e&lt;9;++e){g[t][e]=[];for(let s=0;s&lt;9;++s)g[t][e][s]=p(u,e/8,s/8),g[t][e][s]&gt;255?g[t][e][s]=255:g[t][e][s]&lt;0&amp;&amp;(g[t][e][s]=0)}}h=[];for(let t=3*s,e=3*s+4;t&lt;e;++t)h.push(this.nodes[t].slice(3*r,3*r+4));l=y(h);for(let s=0;s&lt;8;++s)for(let r=0;r&lt;8;++r)(a=new m(l[s][r],[[[g[0][s][r],g[1][s][r],g[2][s][r],g[3][s][r]],[g[0][s][r+1],g[1][s][r+1],g[2][s][r+1],g[3][s][r+1]]],[[g[0][s+1][r],g[1][s+1][r],g[2][s+1][r],g[3][s+1][r]],[g[0][s+1][r+1],g[1][s+1][r+1],g[2][s+1][r+1],g[3][s+1][r+1]]]])).paint(t,e)}}}transform(t){if(t instanceof x)for(let e=0,s=this.nodes.length;e&lt;s;++e)for(let s=0,r=this.nodes[0].length;s&lt;r;++s)this.nodes[e][s]=this.nodes[e][s].add(t);else if(t instanceof g)for(let e=0,s=this.nodes.length;e&lt;s;++e)for(let s=0,r=this.nodes[0].length;s&lt;r;++s)this.nodes[e][s]=this.nodes[e][s].transform(t)}scale(t){for(let e=0,s=this.nodes.length;e&lt;s;++e)for(let s=0,r=this.nodes[0].length;s&lt;r;++s)this.nodes[e][s]=this.nodes[e][s].scale(t)}}document.querySelectorAll(&quot;rect,circle,ellipse,path,text&quot;).forEach((r,n)=&gt;{let o=r.getAttribute(&quot;id&quot;);o||(o=&quot;patchjs_shape&quot;+n,r.setAttribute(&quot;id&quot;,o));const i=r.style.fill.match(/^url\(\s*&quot;?\s*#([^\s&quot;]+)&quot;?\s*\)/),a=r.style.stroke.match(/^url\(\s*&quot;?\s*#([^\s&quot;]+)&quot;?\s*\)/);if(i&amp;&amp;i[1]){const a=document.getElementById(i[1]);if(a&amp;&amp;&quot;meshgradient&quot;===a.nodeName){const i=r.getBBox();let l=document.createElementNS(s,&quot;canvas&quot;);d(l,{width:i.width,height:i.height});const c=l.getContext(&quot;2d&quot;);let u=c.createImageData(i.width,i.height);const f=new b(a);&quot;objectBoundingBox&quot;===a.getAttribute(&quot;gradientUnits&quot;)&amp;&amp;f.scale(new x(i.width,i.height));const p=a.getAttribute(&quot;gradientTransform&quot;);null!=p&amp;&amp;f.transform(h(p)),&quot;userSpaceOnUse&quot;===a.getAttribute(&quot;gradientUnits&quot;)&amp;&amp;f.transform(new x(-i.x,-i.y)),f.paintMesh(u.data,l.width),c.putImageData(u,0,0);const y=document.createElementNS(t,&quot;image&quot;);d(y,{width:i.width,height:i.height,x:i.x,y:i.y});let g=l.toDataURL();y.setAttributeNS(e,&quot;xlink:href&quot;,g),r.parentNode.insertBefore(y,r),r.style.fill=&quot;none&quot;;const w=document.createElementNS(t,&quot;use&quot;);w.setAttributeNS(e,&quot;xlink:href&quot;,&quot;#&quot;+o);const m=&quot;patchjs_clip&quot;+n,M=document.createElementNS(t,&quot;clipPath&quot;);M.setAttribute(&quot;id&quot;,m),M.appendChild(w),r.parentElement.insertBefore(M,r),y.setAttribute(&quot;clip-path&quot;,&quot;url(#&quot;+m+&quot;)&quot;),u=null,l=null,g=null}}if(a&amp;&amp;a[1]){const o=document.getElementById(a[1]);if(o&amp;&amp;&quot;meshgradient&quot;===o.nodeName){const i=parseFloat(r.style.strokeWidth.slice(0,-2))*(parseFloat(r.style.strokeMiterlimit)||parseFloat(r.getAttribute(&quot;stroke-miterlimit&quot;))||1),a=r.getBBox(),l=Math.trunc(a.width+i),c=Math.trunc(a.height+i),u=Math.trunc(a.x-i/2),f=Math.trunc(a.y-i/2);let p=document.createElementNS(s,&quot;canvas&quot;);d(p,{width:l,height:c});const y=p.getContext(&quot;2d&quot;);let g=y.createImageData(l,c);const w=new b(o);&quot;objectBoundingBox&quot;===o.getAttribute(&quot;gradientUnits&quot;)&amp;&amp;w.scale(new x(l,c));const m=o.getAttribute(&quot;gradientTransform&quot;);null!=m&amp;&amp;w.transform(h(m)),&quot;userSpaceOnUse&quot;===o.getAttribute(&quot;gradientUnits&quot;)&amp;&amp;w.transform(new x(-u,-f)),w.paintMesh(g.data,p.width),y.putImageData(g,0,0);const M=document.createElementNS(t,&quot;image&quot;);d(M,{width:l,height:c,x:0,y:0});let S=p.toDataURL();M.setAttributeNS(e,&quot;xlink:href&quot;,S);const k=&quot;pattern_clip&quot;+n,A=document.createElementNS(t,&quot;pattern&quot;);d(A,{id:k,patternUnits:&quot;userSpaceOnUse&quot;,width:l,height:c,x:u,y:f}),A.appendChild(M),o.parentNode.appendChild(A),r.style.stroke=&quot;url(#&quot;+k+&quot;)&quot;,g=null,p=null,S=null}}})}();
	</script>
<a id="a2806" transform="matrix(0.94156143,0,0,0.96703465,-26.297359,106.06601)" inkscape:highlight-color="#aaaaaa">
	<rect id="rect2" x="-727" y="-534.6" class="st0" width="7838.2" height="4874.7"/>
	<path id="path10" class="st1" d="M2151,1612.9c-29.5-21.8-60.8,23.4-73.4,57.3c-35.5,93.7-128.3,168.8-232.1,171.2
		c-103.8,2.4-206.8-78.3-211.9-177.7c-1.7-44.4,13.5-88,35.4-126.8c67.5-121.1,201.7-210,345.2-214c143.5-4,288.7,82.4,335.1,212.4
		c76.8,214.8-56.6,429.6-197.5,579.1c-276.9,293.2-302.2,955.4,268.4,906.1c138.4-12.1,269.3-84.8,348.6-193.8
		c36.3,123.6,59.1,251.2,67.5,380.4c-262.5,41.2-549.5,78.3-780-49.3c-189.1-105-303.9-310.1-320.8-518.5
		c-16.9-205.1,49.8-435.3,178.1-600.9c91.2-117.9,282.8-227.8,252.4-397.3C2163.6,1630.6,2160.3,1619.3,2151,1612.9L2151,1612.9z"/>
	<path id="path12" class="st2" d="M2160.3,1597.5c-34.6-23.4-69.2,8.9-86.1,37.2c-9.3,15.3-14.4,31.5-21.9,46.8
		c-7.6,16.2-17.7,32.3-28.7,46.8c-42.2,55.7-112.3,96.1-185.7,95.3c-70.1-0.8-139.3-42-170.5-101.8c-38-72.7-1.7-155.1,43.1-216.4
		c86.9-118.7,245.6-191.4,395.9-154.3c70.9,17.8,135.9,57.3,180.6,113.1c50.7,62.2,68.4,143.8,65,221.3
		c-4.2,82.4-34.6,162.3-76,234.2c-40.5,69.5-91.2,130.8-146,190.6c-67.5,74.3-115.6,163.1-147.7,256c-31.2,92.9-47.3,193-39.7,290.7
		c7.6,90.5,35.5,180.1,94.5,252c62.5,75.1,155.3,116.3,253.2,128.4c147.7,17.8,299.7-21.8,411.9-116.3c29.5-25,56.6-53.3,79.3-84.8
		c-11-1.6-22.8-2.4-33.8-4c36.3,122.8,58.2,247.9,66.7,375.5c4.2-5.7,9.3-11.3,13.5-17c-184,29.1-377.3,57.3-562.2,22.6
		c-88.6-16.2-173.9-48.5-248.2-98.5c-67.5-46-124.1-108.2-166.3-176.1c-90.3-143.8-117.3-313.4-94.5-478.9
		c11.8-87.2,37.1-172.8,74.3-252.8c33.8-72.7,76.8-142.9,133.4-201.9c92.9-96.9,234.7-200.3,220.3-348.1c-1.7-20.2-5.1-42-21.9-56.5
		c-17.7-15.3-43.9,9.7-26.2,25c12.7,10.5,11.8,34.7,11.8,49.3c0,16.2-1.7,32.3-5.9,48.5c-8.4,32.3-25.3,62.2-45.6,89.6
		c-43.1,58.2-99.6,106.6-150.3,158.3c-119,123.6-191.6,289.1-220.3,454.7c-28.7,169.6-9.3,343.2,75.1,496.7
		c39.7,71.9,92.9,138.1,157.9,190.6c70.1,56.5,152.8,96.9,240.6,120.3c184.9,49.3,381.5,28.3,568.1,0.8c23.6-3.2,47.3-7.3,70.9-10.5
		c7.6-0.8,14.4-9.7,13.5-17c-8.4-130-31.2-259.2-67.5-384.4c-4.2-15.3-25.3-16.2-33.8-4c-46.4,63-109.7,113.1-182.3,145.4
		c-67.5,30.7-141,42.8-216.1,42c-54-0.8-106.4-8.1-157-27.5c-40.5-15.3-78.5-39.6-109.7-70.3c-61.6-61.4-93.7-147-103.8-231
		c-11.8-96.9,1.7-193.8,31.2-286.7c28.7-91.3,76-180.1,140.1-252c54.9-60.6,107.2-121.1,148.6-191.4c43.9-73.5,76-154.3,84.4-238.2
		c8.4-80-5.9-167.2-49.8-237.4c-40.5-63-103-110.6-173.9-138.9c-150.2-59.8-319.9-12.9-432.2,94.5
		c-59.1,56.5-109.7,133.3-116.5,214.8c-5.9,75.1,38.8,144.6,103.8,183.3c66.7,40.4,147.7,43.6,219.5,13.7
		c70.9-29.9,126.6-88.8,154.5-157.5c5.9-14.5,12.7-29.9,22.8-42c4.2-4.8,9.3-10.5,15.2-12.9c4.2-1.6,5.9-0.8,11,2.4
		C2161.1,1641.1,2179.7,1610.5,2160.3,1597.5L2160.3,1597.5z"/>
	<path id="path14" class="st1" d="M3690.6,1032.2c146.9,23.4,281.9,90.5,385.8,215.6c262.5,318.2,369.7,923.1,411.1,1323.7
		c42.2,407.8-57.4,822.2-521.7,940.9c-460.9,117.9-1126.9,90.5-1336.2-394.1c-216.1-499.1-83.6-1783.2,538.5-2019.8
		C3334.4,1035.4,3520.1,1004.7,3690.6,1032.2z"/>
	<path id="path16" class="st2" d="M3685.6,1049.2c151.1,25,284.5,97.7,379,213.2c80.2,97.7,138.4,212.4,184.9,327.9
		c53.2,130.8,92,265.7,124.1,402.2c31.2,132.5,54.9,266.5,72.6,401.4c16.9,121.9,32.1,245.5,29.5,369.1
		c-2.5,117.9-19.4,236.6-63.3,347.3c-42.2,105-110.6,200.3-203.4,269.7c-101.3,75.1-222,112.3-346.1,136.5
		c-117.3,23.4-236.3,35.5-356.2,35.5c-120.7,0-241.4-12.1-357.9-42.8c-109.7-29.1-216.1-75.1-304.7-143.8
		c-89.5-69.5-159.5-159.9-201.7-263.3c-31.2-76.7-51.5-157.5-65-238.2c-16-96.1-23.6-193.8-26.2-291.5
		c-2.5-107.4,2.5-215.6,14.4-322.2c11.8-109.8,30.4-218.9,56.6-326.3c25.3-104.2,58.2-207.6,100.4-306.1
		c38.8-91.3,86.9-179.3,146.9-260.1c53.2-71.1,116.5-136.5,192.5-185.8c37.1-24.2,77.7-44.4,119-60.6
		c82.7-30.7,168.8-53.3,255.8-64.6C3519.3,1037.1,3603.7,1036.2,3685.6,1049.2c23.6,4,32.9-30.7,10.1-33.9
		c-176.4-28.3-358.7,1.6-524.2,63c-89.5,33.1-168,84.8-235.5,149.4c-70.9,68.6-129.1,148.6-176.4,233.4
		c-53.2,93.7-94.5,193-127.5,294c-35.4,106.6-60.8,216.4-80.2,327.1c-19.4,112.3-31.2,225.3-35.4,338.4
		c-4.2,105.8-2.5,211.6,7.6,316.6c8.4,92.1,23.6,184.1,48.1,273.8c27,95.3,68.4,187.4,130.8,266.5c72.6,90.5,168,160.7,275.2,210
		c110.6,50.1,230.4,78.3,351.1,92.1c124.1,13.7,249,12.1,373.1-1.6c60.8-6.5,120.7-16.2,179.8-28.3c63.3-12.9,125.8-28.3,185.7-51.7
		c119-46.8,222-121.9,296.3-222.9c70.9-96.1,111.4-210,131.7-325.5c21.9-125.2,21.9-252.8,9.3-378c-13.5-130-31.2-260.1-54-388.5
		c-25.3-141.3-57.4-281-100.4-419.2c-40.5-130.8-91.2-260.9-159.5-380.4c-69.2-121.1-159.5-232.6-288.7-300.4
		c-64.2-33.9-134.2-55.7-206.8-67.8C3672.1,1012,3661.9,1045.9,3685.6,1049.2z"/>
	<path id="path18" class="st1" d="M3920.4,1571.8c196.7-16.2,368.9-116.3,438.1-337.6c28.7-91.3,42.2-194.6,94.5-277
		c54.9-88,149.4-139.7,226.2-207.6c70.1-61.4,86.1-119.5-25.3-142.1c-70.9-14.5-143.5-13.7-213.6-26.7
		c-97.1-17.8-110.6-48.5-165.4-121.1c-93.7-121.9-238.9-204.3-388.3-247.1c-103.8-29.9-214.4-41.2-322.4-29.9
		c-50.6,5.7-103.8,29.9-147.7,12.1c-58.2-22.6-120.7-102.6-167.1-142.9c-96.2-81.6-131.7-2.4-144.3,85.6
		c-15.2,106.6,34.6,213.2-11,316.6c-12.7,29.1-27,56.5-42.2,83.2c-78.5,141.3-170.5,257.6-138.4,436.9
		c32.9,183.3,168,331.9,332.6,422.4"/>
	<path id="path20" class="st2" d="M3882.2,1560.4c135.1-11.3,265.9-63,353.7-163.9c49-56.5,82.7-122.8,103.8-193.8
		c24.5-81.6,37.1-168,77.7-243.9c38.8-72.7,104.7-123.6,170.5-173.6c31.2-23.4,63.3-47.6,89.5-76.7c18.6-20.2,38-46.8,37.1-75.1
		c-0.8-29.1-23.6-49.3-50.6-60.6c-43-17.8-92-21.8-138.4-25.8c-47.3-4.8-95.4-7.3-142.7-18.6c-27-6.5-52.3-16.2-71.8-33.9
		c-21.1-19.4-37.1-43.6-54.9-66.2c-24.5-32.3-51.5-62.2-81-89.6c-61.6-55.7-133.4-99.3-210.2-133.3
		c-84.4-36.3-173.9-60.6-265.1-71.1c-49-5.7-98.8-6.5-147.7-2.4c-23.6,1.6-47.3,4.8-70.9,9.7c-21.1,4.8-43,10.5-65,11.3
		c-38,0.8-67.5-22.6-93.7-46c-28.7-25.8-54.9-54.1-82.7-81.6c-25.3-24.2-55.7-50.9-93.7-54.9C3115.8-33,3091.3-14.5,3077,9
		c-16.9,28.3-24.5,61.4-28.7,93.7c-6.8,46-2.5,91.3,2.5,137.3c5.1,44.4,10.1,89.6,0.8,134.1c-9.3,45.2-33.8,87.2-56.6,127.6
		c-38,67.8-81,133.3-110.6,205.1c-31.2,75.1-42.2,155.1-28.7,235c24.5,151.8,121.5,285.1,245.6,378c30.4,22.6,62.5,43.6,96.2,62.2
		c20.3,11.3,38.8-19.4,18.6-30.7c-130-71.9-243.9-181.7-297.1-318.2c-27.9-71.1-40.5-148.6-27-223.7
		c12.7-71.9,46.4-137.3,82.7-200.3c19.4-33.9,39.7-67,58.2-101c21.9-39.6,45.6-81.6,54.9-126c17.7-88-13.5-175.3-4.2-264.1
		c3.4-29.9,9.3-63,24.5-89.6c11.8-21,27-29.1,50.6-20.2c32.1,12.9,56.6,42,80.2,65.4c27,26.6,53.2,54.9,83.6,77.5
		c31.2,23.4,64.2,38.8,105.5,34.7c21.9-2.4,42.2-7.3,63.3-11.3c21.9-4.8,44.7-7.3,67.5-8.9c96.2-6.5,192.5,5.7,283.6,32.3
		c77.7,22.6,151.9,54.9,219.5,98.5c66.7,42.8,123.2,95.3,169.7,157.5c16.9,22.6,32.9,46,54.9,65.4c21.1,18.6,46.4,31.5,74.3,38.8
		c87.8,25,183.2,14.5,271,40.4c12.7,4,27.9,8.9,37.1,18.6c6.8,6.5,8.4,12.1,8.4,19.4c0,8.1-5.1,18.6-11,27.5
		c-8.4,12.9-18.6,23.4-29.5,33.9c-57.4,54.1-127.5,95.3-183.2,151c-28.7,29.1-53.2,61.4-71.7,97.7c-18.6,37.2-32.1,76.7-43.1,116.3
		c-21.1,75.9-35.4,153.4-72.6,223.7c-29.5,56.5-70.9,106.6-123.2,145.4c-49.8,37.2-108,62.2-169.7,77.5c-30.4,7.3-60.8,12.1-92,14.5
		C3858.6,1527.3,3857.8,1562.8,3882.2,1560.4z"/>
	<path id="path22" class="st3" d="M4302.6,1202.6c27.9-89.6,42.2-191.4,92.9-273c54-86.4,146.9-138.1,222.8-204.3
		c68.4-60.6,85.3-117.9-24.5-140.5c-69.2-13.7-141-13.7-210.2-26.7c-96.2-17.8-108-47.6-162.9-118.7
		c-87.8-114.7-222-193-362.1-237.4c-3.4,49.3-0.8,99.3,10.1,149.4c26.2,118.7,95.4,226.9,112.3,347.3
		c23.6,166.4-54.9,333.5-41.4,501.5c8.4,103.4,50.6,199.5,110.6,286.7C4164.2,1439.2,4256.2,1350.4,4302.6,1202.6z"/>
	<path id="path24" class="st2" d="M4085.7,986.2c-4.2-71.9-87.8-126.8-160.4-107.4c-21.1,5.7-37.1,17-50.6,33.9
		c-5.1,6.5-0.8,17,5.9,21c8.4,4.8,16,0.8,21.9-5.7c10.1-12.1,24.5-19.4,41.4-21.8c15.2-2.4,32.9,0.8,49,6.5
		c32.1,12.1,59.9,40.4,61.6,73.5C4055.3,1005.6,4086.5,1005.6,4085.7,986.2z"/>
	<path id="path26" class="st2" d="M3446.7,737.4c-4.2-71.9-87.8-126.8-160.4-107.4c-21.1,5.7-37.1,17-50.6,33.9
		c-5.1,6.5-0.8,17,5.9,21c8.4,4.8,16,0.8,21.9-5.7c10.1-12.1,24.5-19.4,41.4-21.8c15.2-2.4,32.9,0.8,49,6.5
		c32.1,12.1,59.9,40.4,61.6,73.5C3416.3,756.8,3448.4,756.8,3446.7,737.4z"/>
	<path id="path28" class="st4" d="M3207,798.8c-92-40.4-215.2,22.6-230.4,117.9c-10.1,60.6,27,123.6,80.2,155.9
		c67.5,41.2,147.7,17,202.6-34.7C3331,969.2,3296.4,838.4,3207,798.8z"/>
	<path id="path30" class="st4" d="M4111,1083.1c-92-40.4-215.2,22.6-230.4,117.9c-10.1,60.6,27,123.6,80.2,155.9
		c67.5,41.2,147.7,17,202.6-34.7C4235.1,1253.5,4200.5,1123.5,4111,1083.1z"/>
	<path id="path32" class="st2" d="M4268.9,635.7c75.1,4,149.4,14.5,222.8,31.5c-3.4-8.9-7.6-17-11-25.8
		c-23.6,39.6-61.6,67.8-107.2,80.8c-22.8,6.5-13.5,40.4,10.1,33.9c54-14.5,101.3-50.1,129.2-96.9c5.9-9.7,0.8-23.4-11-25.8
		c-76-17-154.5-28.3-232.1-32.3C4245.2,598.5,4245.2,634.1,4268.9,635.7z"/>
	<path id="path34" class="st2" d="M3304,996.7c-86.9-106.6-211-176.9-337.6-232.6c-141-63-288.7-110.6-440.6-142.9
		c-85.3-18.6-172.2-31.5-260-39.6c-7.6-0.8-7.6,11.3,0,12.1c153.6,14.5,305.6,44.4,452.4,90.5c73.4,22.6,145.2,49.3,215.2,79.1
		c64.2,27.5,127.5,58.2,186.5,94.5c65.8,40.4,126.6,88.8,174.7,147.8C3299.8,1011.2,3309.1,1002.3,3304,996.7z"/>
	<path id="path36" class="st2" d="M3244.1,986.2c-100.4-76.7-224.5-115.5-348.6-141.3c-141-29.1-286.2-42.8-430.5-42
		c-81.9,0.8-163.8,6.5-245.6,16.2c-6.8,0.8-7.6,12.1,0,10.5c141-17.8,284.5-21,427.1-9.7c134.2,10.5,271,32.3,398.4,75.1
		c68.4,23.4,134.2,54.9,191.6,98.5C3242.4,998.3,3250,991,3244.1,986.2z"/>
	<path id="path38" class="st2" d="M3245.8,1037.9c-162.9-53.3-335.1-77.5-507.3-75.1c-171.4,3.2-341.9,33.9-503.1,90.5
		c-90.3,32.3-177.3,72.7-260,121.1c-6.8,4-0.8,14.5,5.9,10.5c145.2-85.6,305.6-146.2,472.7-179.3c166.3-33.1,339.3-40.4,508.2-18.6
		c95.4,12.1,189.1,33.1,280.2,62.2C3250,1051.6,3253.4,1040.3,3245.8,1037.9z"/>
	<path id="path40" class="st2" d="M3322.6,949c7.6,5.7,16-5.7,8.4-11.3C3323.4,932.1,3315,943.4,3322.6,949z"/>
	<path id="path42" class="st2" d="M3376.6,907c7.6,5.7,16-5.7,8.4-11.3C3377.5,890.1,3369,901.4,3376.6,907z"/>
	<path id="path44" class="st2" d="M3368.2,958.7c7.6,5.7,16-5.7,8.4-11.3C3369,941.8,3360.6,953.1,3368.2,958.7z"/>
	<path id="path46" class="st2" d="M3851,1142c7.6,5.7,16-5.7,8.4-11.3C3851.9,1125.1,3843.4,1136.4,3851,1142z"/>
	<path id="path48" class="st2" d="M3656.9,1058c136.7-52.5,287-50.9,431.3-38c148.6,13.7,296.3,43.6,438.1,86.4
		c80.2,24.2,159.5,53.3,236.3,87.2c6.8,3.2,13.5-7.3,5.9-10.5c-136.7-59.8-280.2-105.8-428-136.5c-73.4-15.3-147.7-27.5-222.8-35.5
		c-74.3-8.1-148.6-12.9-222.8-10.5c-82.7,3.2-165.4,15.3-243.1,45.2C3645.9,1049.2,3649.3,1060.5,3656.9,1058z"/>
	<path id="path50" class="st2" d="M3713.4,1076.6c141.8-21,283.6,15.3,416.1,59.8c125.8,42.8,247.3,97.7,362.1,163.1
		c64.2,37.2,126.6,78.3,186.5,121.9c5.9,4,11.8-4.8,5.9-9.7c-108-79.1-224.5-148.6-346.9-205.1c-123.2-57.3-255.8-106.6-390-132.4
		c-77.7-15.3-157.8-21-236.3-8.9C3703.3,1066.9,3705.8,1077.4,3713.4,1076.6L3713.4,1076.6z"/>
	<path id="path52" class="st2" d="M3678.8,1121c167.1,31.5,328.4,92.1,473.5,176.1c146,84,276.9,192.2,385.8,317.4
		c60.8,70.3,114.8,147,160.4,227.7c3.4,6.5,14.4,0.8,11-5.7c-81-144.6-189.9-274.6-317.4-384.4c-127.5-109-273.5-197.9-431.3-260.9
		c-89.5-36.3-183.2-63-278.6-81.6C3674.6,1108.1,3671.2,1119.4,3678.8,1121z"/>
	<path id="path54" class="st2" d="M3832.4,1100c7.6,5.7,16-5.7,8.4-11.3C3833.3,1083.9,3824.9,1095.2,3832.4,1100z"/>
	<path id="path56" class="st2" d="M3791.1,1130.7c7.6,5.7,16-5.7,8.4-11.3C3792.8,1113.8,3783.5,1125.1,3791.1,1130.7z"/>
	<path id="path58" class="st2" d="M3786.9,1076.6c5.9-15.3-19.4-22.6-25.3-7.3c-13.5,33.9-41.4,85.6-86.1,78.3
		c-33.8-5.7-57.4-38.8-64.2-69.5c-5.1-22.6-3.4-45.2,5.1-66.2c0-0.8,0-0.8,0-1.6c0.8-1.6,1.7-2.4,2.5-4
		c12.7-30.7,24.5-62.2,37.1-92.9c2.5-6.5-2.5-13.7-9.3-16.2c-7.6-2.4-14.3,2.4-16.9,8.9c-12.7,30.7-24.5,62.2-37.1,92.9
		c0,0,0,0,0,0.8c-0.8,0.8-0.8,1.6-1.7,2.4c-23.6,43.6-73.4,75.1-125.8,68.6c-19.4-2.4-38-11.3-48.1-27.5
		c-14.4-21.8-10.1-49.3-2.5-72.7c5.1-15.3-20.3-22.6-25.3-7.3c-14.4,43.6-11,95.3,34.6,121.1c39.7,21.8,90.3,15.3,128.3-5.7
		c10.1-5.7,19.4-12.1,27.9-20.2c0.8,29.9,11.8,59,31.2,82.4c27.9,33.1,75.1,46.8,114,22.6C3757.3,1141.2,3775,1108.1,3786.9,1076.6z
		"/>
	<path id="path60" class="st5" d="M3672.9,873.1c-30.4-13.7-72.6-11.3-77.7,21c-4.2,28.3,22.8,62.2,54,60.6
		c20.3-0.8,48.1-18.6,53.2-38C3706.7,896.5,3690.6,881.2,3672.9,873.1z"/>
	<path id="path62" class="st2" d="M3238.2,206.8C3240.7,208.4,3236.5,205.2,3238.2,206.8c0.8,0.8,1.7,1.6,2.5,1.6
		c1.7,1.6,3.4,2.4,4.2,4c3.4,2.4,6.8,5.7,9.3,8.1c5.9,5.7,11.8,12.1,17.7,18.6c0.8,1.6,2.5,3.2,3.4,4.8c-0.8-1.6-1.7-1.6,0,0
		c0.8,0.8,1.7,1.6,1.7,2.4c2.5,3.2,5.1,6.5,7.6,9.7c5.1,7.3,9.3,14.5,12.7,21.8c4.2,8.1,16.9,11.3,25.3,6.5
		c8.4-5.7,11-15.3,6.8-24.2c-16.9-33.1-43-61.4-73.4-84c-3.4-2.4-10.1-3.2-14.4-1.6c-4.2,0.8-9.3,4-11,8.1c-2.5,4-3.4,8.9-1.7,13.7
		C3231.4,200.4,3234,203.6,3238.2,206.8z"/>
	<path id="path64" class="st1" d="M3595.3,3486.5c5.9,126.8-1.7,261.7-70.1,311.7c-90.3,66.2-242.3,22.6-282.8-78.3
		c-35.4-88,6.8-184.9,11-278.6c4.2-86.4-24.5-171.2-52.3-253.6c-92-271.4-198.4-478.1-359.6-780.2"/>
	<path id="path66" class="st2" d="M3576.7,3486.5c3.4,66.2,4.2,134.9-10.1,200.3c-11,49.3-32.1,95.3-83.6,114.7
		c-46.4,17.8-102.1,12.9-146-9.7c-51.5-25.8-83.6-71.1-88.6-126.8c-6.8-74.3,19.4-147,23.6-220.5c4.2-79.1-17.7-156.7-42.2-231
		c-42.2-128.4-92-253.6-148.6-376.3c-59.9-130-126.6-257.6-194.1-384.4c-9.3-17.8-19.4-36.3-28.7-54.1c-11-20.2-43-2.4-32.1,17.8
		c71.7,134.1,143.5,268.9,207.7,406.2c59.1,126,110.6,254.4,155.3,385.2c25.3,75.9,50.6,154.3,46.4,235
		c-4.2,75.9-32.1,151-22.8,228.6c7.6,61.4,39.7,113.9,95.4,146.2c48.1,27.5,108.9,38,163.8,25c27-6.5,52.3-18.6,73.4-35.5
		c21.1-17.8,35.4-42.8,44.7-67.8c24.5-62.2,27-132.5,26.2-197.9c0-18.6-0.8-36.3-1.7-54.9
		C3612.1,3463.1,3575.8,3463.1,3576.7,3486.5z"/>
	<path id="path68" class="st1" d="M3513.4,2263c18.6,331.1,32.1,663.1,59.1,994.2c8.4,101,4.2,201.1,18.6,302
		c9.3,67.8,21.9,173.6,84.4,218.9c91.2,64.6,242.3,22.6,282.8-78.3c35.4-88-6.8-184.9-11-278.6c-4.2-86.4,24.5-171.2,52.3-253.6
		c92-271.4,250.7-579.1,323.3-861.7"/>
	<path id="path70" class="st6" d="M3494.8,2263c14.4,250.4,25.3,500.7,41.4,751.1c8.4,125.2,19.4,249.6,23.6,374.7
		c1.7,60.6,5.1,120.3,13.5,180.1c5.9,42,11.8,84.8,25.3,126c13.5,40.4,35.4,79.1,73.4,103.4c33.8,21.8,76.8,30.7,117.3,28.3
		c85.3-4.8,166.3-55.7,190.8-136.5c16.9-54.1,8.4-111.5-0.8-166.4c-10.1-57.3-18.6-113.1-11-171.2c7.6-59,27-116.3,45.6-172.8
		c17.7-51.7,36.3-102.6,56.6-153.5c83.6-212.4,181.5-420,247.3-638c7.6-25.8,15.2-52.5,21.9-78.3c5.9-21.8-30.4-31.5-35.5-9.7
		c-54.9,214.8-148.6,418.3-232.1,623.5c-41.4,101-81.9,203.5-113.9,307.7c-16.9,55.7-30.4,113.9-30.4,172
		c0,55.7,14.4,110.6,21.9,165.6c5.9,48.5,7.6,100.9-19.4,143.8c-18.6,29.9-49.8,52.5-83.6,65.4c-34.6,12.1-72.6,16.2-108.9,7.3
		c-38-8.9-67.5-31.5-86.1-64.6c-20.3-36.3-28.7-77.5-35.5-117.9c-8.4-50.1-13.5-101-16-151.8c-3.4-60.6-3.4-122-7.6-182.5
		c-4.2-61.4-9.3-121.9-13.5-183.3c-16.9-244.7-27.9-489.4-41.4-734.1c-1.7-29.9-3.4-59.8-5.1-89.6
		C3531.1,2240.4,3494,2240.4,3494.8,2263L3494.8,2263z"/>
	<path id="path895" class="st2" d="M3619.6,3457.3c-3.4,66.2-4.2,134.9,10.1,200.3c11,49.3,32.1,95.3,83.6,114.7
		c46.4,17.8,102.1,12.9,146-9.7c51.5-25.8,83.6-71.1,88.6-126.8c6.8-74.3-19.4-147-23.6-220.5c-4.2-79.1,17.7-156.7,42.2-231
		c42.2-128.4,92-253.6,148.6-376.3c59.9-130,126.6-257.6,194.1-384.4c9.3-17.8,19.4-36.3,28.7-54.1c11-20.2,43-2.4,32.1,17.8
		c-71.7,134.1-143.5,268.9-207.7,406.2c-59.1,126-110.6,254.4-155.3,385.2c-25.3,75.9-50.6,154.3-46.4,235
		c4.2,75.9,32.1,151,22.8,228.6c-7.6,61.4-39.7,113.9-95.4,146.2c-48.1,27.5-108.9,38-163.8,25c-27-6.5-52.3-18.6-73.4-35.5
		c-21.1-17.8-35.4-42.8-44.7-67.8c-24.5-62.2-27-132.5-26.2-197.9c0-18.6,0.8-36.3,1.7-54.9
		C3584.2,3433.9,3620.5,3433.9,3619.6,3457.3z"/>
	<path id="path960" d="M3537.6,2657.2c-0.1,26,0.8,52.1-0.8,78.1c-2.6,29.4-4.6,58.8-5.9,88.3c-0.9,19.8-0.9,39.6-0.9,59.5
		c-0.4,27.1-3.8,54.2-5.4,81.3c-1.5,28.3-1.9,56.6-2.1,85c-0.1,24.4-0.1,48.8-0.1,73.2c1.7,22.3,4.7,44.6,6.2,66.9
		c1.6,24.1,4.9,48.1,7,72.2c1.5,18.3,1.9,36.7,2.1,55.1c2.5,17.4,4,34.9,7.1,52.2c4.1,15.8,5.1,32,8.1,48c2.7,15.2,6.8,30,10.2,45
		c0.8,2.8,1.6,5.7,2.4,8.5l14.7,6.7l0,0c-0.8-2.8-1.6-5.6-2.4-8.5c-3.3-15-7.6-29.8-10.2-44.9c-3.2-15.9-3.9-32.2-8.2-48
		c-3.2-17.2-4.5-34.7-7.2-51.9c-0.2-18.4-0.5-36.8-2.1-55.2c-2.1-24.1-5.3-48.1-6.9-72.2c-1.5-22.3-4.4-44.5-6.3-66.8
		c0-24.4-0.1-48.8,0-73.2c0.2-28.3,0.5-56.6,2-84.9c1.6-27.1,5.1-54.1,5.6-81.3c0-19.8,0.1-39.6,0.9-59.4
		c1.2-29.5,3.1-58.9,5.8-88.3c1.7-26,0.7-52,1-78L3537.6,2657.2L3537.6,2657.2z"/>
	<path id="path962" d="M3619.9,3455.4c-6.3-31-14.6-61.6-21.2-92.5c-5.7-24.6-11.6-49.2-17.9-73.6c-5-19-5.3-38.6-5.7-58
		c-0.4-23.8-0.2-47.6-0.2-71.4c0-22,0.1-44.1,0.1-66.1c0-21.8,0-43.5,0-65.3c-1-28.2,4.2-56,8.9-83.7c3.2-25.4,6-50.8,9.5-76.1
		c2.7-18.7,3.9-37.4,4.3-56.2c0.3-18.8,0.2-37.6,0.2-56.4c-1.2-17-5-33.6-10.5-49.7c-7.1-14.3-16.5-27.3-23.8-41.6l-14.8-6.4l0,0
		c7.3,14.3,16.3,27.4,24,41.5c5.7,15.9,9.4,32.4,10.8,49.2c0,18.8,0.1,37.6-0.2,56.4c-0.5,18.8-1.6,37.5-4.2,56.1
		c-3.4,25.4-6.3,50.7-9.4,76.1c-4.6,27.8-10,55.6-9.1,83.9c0,21.7,0,43.5,0,65.2c0,22,0,44.1-0.1,66.1c0,23.8-0.2,47.6,0.2,71.4
		c0.5,19.5,0.6,39.3,5.6,58.3c6.3,24.5,12.4,49,18.1,73.7c6.6,30.9,14.9,61.4,21,92.3L3619.9,3455.4L3619.9,3455.4z"/>
	<path id="path1033" d="M-73.8-128.4"/>
	<path id="path1035" d="M-73.8-128.4"/>
	<path id="path1037" d="M3568.9,2906.6c-2.3-26.6-12.9-224.9-12.2-228c1.2-5.5,15.4,22,20.1,38.9c8.6,31.1,7.8,93.8-2.2,170.9
		l-4.4,33.8L3568.9,2906.6z"/>
	<path id="path1039" d="M3562.2,2908.9c-5.3-24.7-13.7-57.4-15.3-59.8c-0.7-1-0.8-9.6-0.3-19.2c0.8-13.7,1.3-16,2.4-11
		c1.7,7.7,2.3,10.2,6.1,25.6c7.4,30.3,8.8,36.2,9.7,40.3c1.4,7,3.5,43.7,2.5,43.7C3566.9,2928.5,3564.6,2919.7,3562.2,2908.9
		L3562.2,2908.9z"/>
	<path id="path1041" d="M3560.6,2965.9c-11.6-41.9-15.8-63-15.6-78.5l0.2-16.4l5.3,21c13.8,54.6,15.4,62.7,13.7,72.1l-1.6,9.1
		L3560.6,2965.9z"/>
	<path id="path1043" d="M3555.2,3009.3c-1.9-7.8-3.7-15-3.9-16c-0.2-1-1.4-5.5-2.7-10c-1.3-4.5-2.6-9.4-3-11
		c-4.8-20.4-5.2-23.7-3.5-31.2l1.9-8l4.4,18.3c2.4,10,5.9,23.7,7.7,30.4c3,10.8,5.4,41.7,3.4,41.7
		C3559.1,3023.5,3557.2,3017.1,3555.2,3009.3L3555.2,3009.3z"/>
	<path id="path1045" d="M-73.8-128.4"/>
	<path id="path1047" d="M3542.9,3092.6c0-6.5,1.4-16.7,3-22.7c3.6-12.8,3.3-11.8,6.2-24.6c2.1-9.2,1.8-11.8-3.7-32
		c-9.1-33.7-10-38.5-8.4-46c1.3-6.3,2.3-3.6,10.8,28.7c10.1,38.3,10.6,45.4,5,62.7c-1.9,5.9-3.9,13.7-4.5,17.3
		c-1.6,9.8-2.1,11.9-3.4,14.9c-0.7,1.5-1.5,4.6-1.8,6.8C3544.8,3106.8,3542.9,3103.7,3542.9,3092.6z"/>
	<path id="path1049" d="M3560.8,3068.2c0-15.1,0.3-21,0.7-13.2c0.4,7.8,0.4,20.2,0,27.4C3561.1,3089.7,3560.8,3083.3,3560.8,3068.2
		L3560.8,3068.2z"/>
	<path id="path1051" d="M3547.5,2790.3c2.7,11.6,4.5,23.4,5.9,35.2c0.7,5.4,0.8,10.9,0.7,16.3c0,1.3-0.1,2.6-0.2,3.9
		c0,0.6-0.8,1.5-0.3,1.8c4.6,2.6,9.7,4.2,14.5,6.2c0.3-10.5-0.1-21.1,0.9-31.5c-4.9-2.1-9.3-5.5-14.6-6.4c-1.4-0.2-0.2,2.6-0.4,4
		c-0.3,2.2-0.6,4.5-0.9,6.7c-1.6,10.5-3.8,20.9-6,31.3c-4.2,20-9,39.8-13.8,59.7c-2.1,8.7-3,17.5-3.3,26.5
		c-0.1,8.9-0.1,17.7-0.1,26.6c0,6,0,12,0,18.1c-0.1,7.1,0.6,14.2,1.4,21.2c0.8,7.7,2.2,15.3,3.8,22.9c1.8,8.6,3.7,17.2,5.5,25.8
		c2.2,11,1.6,13.3,17.8,16.4c1.2,0.2,0.7-2.2,1-3.4c2.4-17.6,3.4-35.3,4.4-53c0.5-12.2,1-24.3,2.2-36.5c0.4-7.3,1.6-14.5,2.1-21.8
		c0.4-10.5,1-21,1.6-31.5c0.5-11.8,1.8-23.5,2.4-35.3c0.4-4.5,0.8-9,1.4-13.5c0.1-1,0.2-2,0.4-2.9c0.1-0.5,0.8-1.2,0.3-1.4
		c-4.7-2.3-9.9-3.7-14.8-5.5c-2.2,11-3.4,22.2-5,33.3c-0.8,5.6-1.6,11.2-2.3,16.7c-0.2,1.2-0.4,2.4-0.5,3.6c-0.1,0.6-0.6,1.5,0,1.8
		c4.8,2.9,10.1,4.8,15.2,7.2c6-8.8,10.6-18.5,15.1-28.1c2.6-6.2,4.3-12.8,5.4-19.4c1.2-6.4,2-12.9,2.4-19.4
		c0.3-9.3,0.3-18.5,0.3-27.8c0-10.6,2.4-12.7-15.2-15.2c-1.4-0.2-0.8,2.5-1.2,3.8c-0.5,1.8-0.9,3.7-1.4,5.5
		c-3.5,14.3-6.3,28.6-8.9,43.1c-2.4,11-3.3,22.2-4.6,33.3c-1.1,8.4-1.6,16.8-2,25.3c0.5,4.6-1.3,10.2,0.1,14.6
		c5.2,2.3,10.2,5.2,15.7,6.8c0.8,0.2,1.3-1.1,1.9-1.7c2.7-2.8,4.4-6.3,5.7-9.9c0.4-8.3-4.9-8-15.6-12.9c-1-0.5-7.8,3.4-8.7,3.9
		c-6.2,3.3-9.7,8.6-12.8,14.6c-4.6,3.2-5.2,3.4,13.4,6.6c1.3,0.2-0.1-2.5-0.2-3.7c0-2,0-4.1,0-6.1c0.1-5.3,0.2-9.7,0.3-15
		c0.2-6.2,0.3-12.4,0.5-18.6c0-1.4,0.1-2.7,0.1-4.1c0-0.7,0.6-1.7,0-2.1c-4.6-2.8-9.9-4.5-14.8-6.7c-2.7,12.9-3.3,26.1-4.2,39.2
		c-0.1,2.1-0.2,4.1-0.3,6.2c-0.1,1.6-0.2,3.2-0.3,4.8c0,1.2-0.2,3.9,0.3,4.1c17.3,6,14.5,9.2,17.2-0.8c4.2-20.4,6.9-41.1,10.5-61.6
		c1.4-10.1,1.8-12.4-15.5-14.3c-1.7-0.2-1.8,2.9-2.7,4.4c-0.6,1.2-5,10-5.7,11.3c-0.7,1.2-1.3,2.3-2,3.5c-0.2-0.1-0.8-0.2-0.6-0.2
		c4.8,1.6,9.3,5.3,14.3,4.6c2.3-0.3,0.6-4.4,0.9-6.7c4.7-33.2-2.4,17.9,3.1-22.1c1.7-12.9,3.1-25.8,4.5-38.7
		c0.5-4.5,1.1-9.3,1.1-13.9c-5.1-1.4-10-4.3-15.3-4.1c-1.7,0.1-0.6,3.3-0.8,4.9c-1.2,7.3-2.2,14.6-2.9,21.9
		c-1,9.4-1.4,9.6,14.2,14.2c1.2,0.3,1.2-2.1,1.7-3.2c1.7-4,2.2-6.5,3.3-10.9c0.5-2.4,1-4.7,1.5-7.1c0.6-3.1,1.6-9.1,2.2-12.4
		c0.1-0.7,1.1-1.9,0.4-2.2c-17.4-7-14.5-7.3-16.5,4c-0.5,3.1-1.1,6.2-1.6,9.3c-0.8,5-1.9,10-2.7,15c-0.2,0.9-1.2,2.3-0.4,2.8
		c15.6,10.5,13.9,11.1,15.9,2.2c1.8-14.9,5-29.8,4.8-44.8c-1.6-7.9-0.3-5.4-15.7-11.7c-0.9-0.4-1.5,1-2.2,1.6
		c-2.4,2.1-4.1,4.7-5.8,7.4c-3.8,5.6-5.4,12.2-8.7,18c-1.3,1.8-2.3,2.8-4.5,1.7c-0.7-0.3-2.6-1.7-1.9-1.3c12,5.8,15,9.6,10.4,4.4
		c-2.6-3.6-3.3-7.8-3.6-12.1c-0.4-4.8-1.4-9.5-2.4-14.2c-1-4.2-1.2-8.6-1.4-12.9c-0.1-6.1-0.1-12.1-0.1-18.2c0-4.4,0-8.7,0.1-13.1
		c0-4.5,0-8.9,0-13.4c-0.1-7.2-0.2-14.5,0.5-21.7c0.2-4.8,1.5-9.4,2.4-14.1c1-4.4,2.9-8.6,4.4-12.9c2.1-4.7,3.6-9.7,5.3-14.6
		c2.1-5,4.4-9.9,6.2-15c1.3-4,2-8.1,3.4-12c1.2-3.5,2.3-7,3.9-10.3c3.2-7.9,3.5-6.4-12.5-10.8c-0.9-0.2-0.2,1.7-0.3,2.6
		c-1.4,8.8-2.9,17.5-3.9,26.3c-0.6,9.1-1.2,18.2-1.8,27.3c-0.4,10.3-1.4,20.6-2.1,31c-0.4,10.1-1.5,20.2-2.2,30.2
		c-0.2,6.4-0.9,12.8-1.4,19.1c-0.7,4.8-1.1,9.6-2,14.3c-0.1,0.4-0.8,1.1-0.4,1.3c4.6,2.5,9.6,4.2,14.4,6.4c-1-9.4-0.8-19-0.7-28.5
		c0-7,0.1-14.1,0.1-21.1c0.1-5.2,0.2-10.5-0.5-15.7c-0.8-5.3-1.1-10.6-1.3-16c-0.1-4.2-0.2-8.4-0.1-12.6c-5.1-1.8-9.9-4.9-15.4-5.3
		c-1.5-0.1-0.9,2.8-1.3,4.1c-2.7,9.2-4.5,18.6-6.2,28c-1.9,11-2.6,22.1-2.9,33.3c-0.1,7.9,1.3,15.6,3.3,23.2
		c2.1,7.6,5.3,14.9,9,21.9c0.6,0.9,1.1,1.8,1.8,2.6c0.6,0.6,1.2,1.2,2,1.5c5.5,2.5,10.8,5.6,16.7,6.9c2.6,0.6,8.5-12.3,9.1-13.5
		c7-19.1,10.5-39.1,14.6-58.8c1.7-10.6,3-12.4-14.2-16.2c-1.4-0.3-1.3,2.5-1.8,3.9c-1.3,3.9-2,9.2-2.6,13.1
		c-1.7,16.5-3.4,33.2-2.6,49.8c1,6,1,10,15.5,7.3c2.8-0.5,0.4-5.5,0.4-8.2c0.3-13.7-0.4-27.4-0.8-41.1c-0.2-4.2-0.4-8.5-0.6-12.7
		c-0.3-4.7-0.5-11.8-1.6-16.8c-0.2-1-0.2-2.4-1.2-2.8c-17.4-8.4-14.9-9.6-17,0.9c-1.1,10-1.7,20.1-2.1,30.1
		c-0.2,6.2-0.8,12.8,0.6,18.8c5.2,1.9,10.1,6,15.7,5.7c2.3-0.1,1.2-4.3,1.6-6.5c3-15.1,4.3-30.6,5.9-45.9c0.3-2.9,0.6-5.8,0.9-8.7
		c0.2-2,0.5-4.1,0.7-6.1c0.2-1.2,0.3-2.5,0.5-3.7c0.1-0.4,0.5-1,0.2-1.2c-15.8-7.4-14.5-10.3-14.8-2c-0.4,8.4-0.5,16.9-1.5,25.3
		c-0.7,5.7-1.2,11.5-1.4,17.3c-1,10.3-3.9,20.3-6.3,30.3c-4.8,17.8-9.2,35.7-12.4,53.9c-1.5,9.4-2.2,18.9-2.5,28.5
		c-0.1,8.9-1.3,8.7,14.4,14.1c0.4,0.1,6.8-9.3,7.4-10.2c0.7-0.8,2.2-3.2,3.9-3c0.6,0.1,2.1,1.3,1.5,1.1c-4.1-1.8-7.7-4.6-12.1-5.7
		c-1.2-0.3,1.2,2.1,1.7,3.1c0.6,1.4,1.1,2.9,1.6,4.3c3.2,10.3,4.4,20.9,5.9,31.5c1.2,9.4,2.6,18.8,3.4,28.2c0.1,1.6,0.2,3.1,0.3,4.7
		c0,0.6,0.5,9.5,0.6,9.5c17.2,5.9,14.8,7,15.3-3.7c0.5-18.1,0.6-36.2,0.8-54.4c-0.3-13.3,0.3-26.6-0.1-39.9
		c-1.2-5.8-0.9-5.6-15.5-5.8c-0.7,0-1.6,25.1-1.7,26.7c-0.4,11.6-0.7,23.2-0.8,34.9c-0.1,7.5,0.1,15-0.2,22.5
		c-0.8,11.3-2.1,22.6-3.8,33.8c-2,11-3.2,22.1-5.1,33.1c-1.9,10.6-3.1,21.2-3.9,31.9c-0.4,9.3-1.6,18.5-2.5,27.8
		c-0.8,10.9-2.2,21.7-2.9,32.6c-0.3,8.8-4.3,16.7,13.8,14.5c2.2-0.3,0-4.3,0-6.5c0-3.3,0.1-6.6,0.1-10c0.4-24.3,1.7-48.5,2.6-72.7
		c0.1-3.1,0.2-6.2,0.3-9.3c0.1-2.2,0.6-8.8-0.1-11.7c-0.2-0.7-0.5-1.5-1.2-1.7c-5.4-2.1-10.8-5.3-16.7-5.3c-2.1,0-1.9,3.6-2.9,5.4
		c-7.6,18.8-10.1,39.1-13,59c-1.6,10-2.3,20-1.6,30.1c0.6,6.8,0.7,13.6,0.8,20.4c0.5,8.1,1,16.3,2.1,24.4c1,6.8,2.2,13.7,3.7,20.4
		c1.8,9.1,3.7,18.1,5.6,27.1c1.4,6.8,2.6,13.7,3.8,20.6c1.5,8.9,1.7,17.3,17.6,13.9c2.5-0.5,0.4-4.8,0.6-7.2
		c1.5-30.9,0.4-61.8-0.9-92.6c-0.9-18.4-2.1-36.9-2.6-55.3c-0.1-1,0.6-2.4-0.2-2.9c-4.7-2.3-9.8-4.9-15-4.6
		c-1.9,0.1-0.2,3.6-0.2,5.4c0.1,9.7,1.3,19.3,2.4,29c2.9,21.4,6.5,42.7,9.8,64c1.2,6.1,1.1,11.5,15.5,5.8c2.7-1-0.1-5.5-0.2-8.2
		c-0.4-9.6-0.9-19.2-1.4-28.8c-0.5-10.3,1.2-14.3-15.7-16.3c-1.8-0.2-1,3.3-1.4,5c-0.4,2-2.5,15-2.7,16.4
		c-2.2,15.2-4.4,30.3-6.1,45.6c-0.8,8.3-4.3,14,13.8,13.6c2.4-0.1,0.6-4.5,1-6.7c0.8-5,2.6-16,3.4-20.7c2-14.3,4.7-28.3,8-42.4
		c0.9-2.5,1.3-5.5,3.1-7.7c0.2-0.2,0.5-0.6,0.8-0.5c0.3,0.1,0.3,0.9,0,0.8c-4.7-2.1-9.1-4.7-13.7-7c-0.4,4.2-1.8,10.4-4.4,13.8
		c4.7,2.1,9,5.2,14.1,6.3c1.1,0.2-0.1-2.2-0.1-3.3c0-2,0.2-3.9,0.3-5.9c0.3-6.2,1-11.9,0.5-18c-4.8-5.5-3.9-5-18.2-7
		c-1.2-0.2-1.6,1.8-2.3,2.7c-0.5,0.6-0.9,1.3-1.6,1.8c-0.1,0.1-0.4-0.4-0.3-0.3c4.8,2,9.5,4,14.3,6c0.1-3.9,2-7.8,1.7-11.7
		c0-0.5-0.2-1.3-0.7-1.5c-5.7-1.7-11.4-4.8-17.3-3.9c-2.7,0.4-2.5,4.6-3.8,6.9c-3.7,7.6-6.4,15.6-9.9,23.3c-0.4,0.8-2.1,2-1.3,2.5
		c16.6,9.7,14.2,7.9,14.4-2.6c0.5-9.4,0.8-18.8,2.1-28.1c0.2-1.2,1.7-2.9,0.7-3.6c-17.6-12.6-14.7-8.2-12.3-0.2
		c6,23.6,12.9,47.1,19.8,70.5c0.8,2.1,1.4,4.4,2.3,6.4c2.5,5.4,15.3,5.6,17.3,4.9c2.9-1.1,0.3-5.9,0.3-8.9c0-8.7-0.5-15-1.1-23.7
		c-0.3-3.5-0.5-7.1-0.8-10.6c-1-10.1-1.1-18.3-17.4-18c-2.4,0-0.9,4.6-1,6.9c-0.2,3.9,0.1,7.9,0.1,11.8c1.4,27.2,4.4,54.3,7.8,81.3
		c1.2,7.3,0.3,11.8,15.4,9.1c2.1-0.4-0.5-4.2-0.7-6.2c-0.9-8.2-0.8-8.1-1.6-16.3c-1.5-12.4,1.3-20.5-17.9-21.6
		c-1.9-0.1-1.3,3.5-1.7,5.3c-0.6,2.8-1,5.7-1.4,8.6c-2.5,18.5-3.2,37.2-4.7,55.8c-1.1,5.7-2,7.4,14.1,6.6c2-0.1-0.2-3.9-0.2-5.8
		c-0.2-9.2-0.4-18.3-0.7-27.5c-0.1-2.9-0.1-5.9-0.3-8.8c-0.4-9.2,0.9-14.4-15.6-13.1c-2,0.2-0.2,3.9-0.3,5.9
		c-0.1,2.5-0.2,4.9-0.3,7.4c0,2.4,0,4.9,0,7.3c0,6.1-1.5,17.4,15.2,7.9c3.2-1.8,0.2-7.1,0.3-10.7c0.1-4.9,0.2-9.9,0.3-14.8
		c0.3-16.1,0.5-32.2,0.8-48.3c0.2-9.7,0.5-19.2-0.3-28.9c-3.2-5.8-3.6-7.5-17.6-5.3c-2.4,0.4-1.8,4.4-2.6,6.6
		c-2.7,7.9-4.5,16-6.4,24c-0.5,2-0.9,4-1.4,6c-0.3,1.1-0.5,2.3-1,3.4c-0.1,0.2-0.6-0.5-0.4-0.4c4.6,1.3,9,5.2,13.6,4.2
		c2.4-0.5-0.3-4.7-0.4-7c-0.1-2.9-0.1-5.7-0.2-8.6c-0.3-4.8-0.2-9.6-0.5-14.4c-0.1-1,0.5-2.4-0.4-3c-4.5-3-9.4-6-14.8-7
		c-1.5-0.3-0.6,2.8-0.7,4.2c-0.2,2.2-0.2,4.5-0.3,6.7c-0.3,7.6-0.5,15.3-0.8,22.9c-0.1,1.9-0.2,3.7-0.2,5.6c0,1.1-0.7,2.5,0.2,3.2
		c4.5,3.3,9.9,5.4,14.9,8c0.7-1.4,1.6-2.7,2.1-4.1c1.2-3.3,2.9-11.5,3.6-14.5c0.5-2.2,1.1-4.3,1.8-6.5c1.4-4.3,1.2-4,1.4-2.1
		c-4.5-1.6-8.8-5.4-13.6-4.9c-2.2,0.2,0.1,4.2,0.1,6.2c0.2,10.9,0.4,21.8,1,32.8c0.6,7.2,0.1,11.3,15.8,7.6c2.3-0.5,0.3-4.5,0.4-6.8
		c0.3-6.5,0.5-13.1,0.6-19.6c0.3-22.6-2.3-45.2-4.4-67.7c-1.3-12-2-24.1-2.2-36.2c-0.2-12.6,2.5-25.1,4.5-37.5
		c0.1-0.4,1.4-7.9,1.7-9c1.7-6,12.9,0.1-13.3-7.7c-0.8-0.2,0.7,1.5,0.9,2.3c0.4,1.5,0.5,3,0.8,4.5c0.2,1.8,0.5,3.5,0.7,5.3
		c0.4,3,0.4,6.1,0.9,9.1c0.1,0.5,0,1.3,0.5,1.5c18,5.9,14.9,8.4,17.7-2.9c1.3-7.9,3-15.7,3.9-23.6c0.1-0.9,0.4-4.3,0-4.5
		c-5-2.2-10.3-3.9-15.4-5.8c-1.6,3.4-1.9,7.2-2.9,10.8c-0.1,0.3-0.7,0.7-0.4,0.9c4.7,2.5,9.6,4.4,14.4,6.6
		c0.5-7.4,1.3-14.9,2.1-22.3c0.8-7.2,1.2-4.1,0.3-8.5c-5.3-2.2-10.4-5.4-16-6.5c-1.3-0.2-1.6,2-2.3,3c-2.5,3.7-3.7,8-6.4,11.5
		c4.9,1.8,9.5,5.6,14.8,5.5c2,0,1.1-3.7,1.7-5.6c3-10.2,5.8-20.4,8.3-30.7c3.3-12.7,6.3-25.6,9.6-38.3c2-7.5,4.5-14.9,6.5-22.3
		c1.5-6,3.8-11.7,5.8-17.6c2-5.6,4.3-11.1,5.9-16.8c1.8-5.1,2.8-10.4,3.7-15.7c1.4-6.4,2.4-12.8,2.9-19.3c0.3-5.3,0.6-10.7,0.3-16.1
		c-0.7-5.3-1.2-10.6-1.5-15.9c-0.6-5-1.2-9.9-2.3-14.8c-1.2-5-2.6-9.9-4.7-14.6c-2.7-5.1-5.7-10-8.5-15c-2.2-3.6-4.3-7.2-6.4-10.9
		c-1.7-3-3.6-5.9-5-9c-1.6-3.6-3.3-7.2-5-10.7c-0.9-0.7-1.5-6.1-2.1-6.4c-15.7-7.3-14-11.2-15.7-3.8c-1.7,8.9-2.2,18-2.6,27
		c-0.6,11.2,0.1,22.5,0.7,33.7c0.8,7.8,0.4,15.9,2.1,23.6c5,1.9,9.7,5.1,15,5.8c1.3,0.2,0.3-2.4,0.5-3.6c0.2-1.7,0.4-3.3,0.5-5
		c0.7-6.3,1.4-12.6,2-18.9c1.5-10.7,2.6-21.5,4.1-32.2c1-6,1.5-12,2.6-17.9c1.2-4.6-0.2-8.3-3.7-11.5c-3.9-2.3-5.9-4.3-7.1-8.5
		c-0.7-5.3-1.4-10.5-2.1-15.8c-0.2-2-0.5-3.9-0.3-5.9c0.1-0.5,0.3-1.9,0.4-1.4c0.1,0.3-0.1,0.6-0.1,0.9
		c-24.1-12.8-14.4-9.6-11.2-4.5c1.8,2.9,2.9,6.1,4.1,9.3c2.6,7,4.1,14.3,4.9,21.7c1,5.9,1.3,11.8,2.2,17.7c0.8,4.1,1.3,8.2,2.3,12.3
		c1,4.4,2.6,8.6,4,12.9c2.1,6,3.7,12.1,5.1,18.2c1.3,6,1.8,12.1,2.6,18.1c1.1,7.2,1.3,14.5,1.5,21.8c0.3,9.1,0.2,18.2-0.4,27.3
		c-0.6,8.9-2.3,17.7-3.7,26.4c-1.5,9.2-3.9,18.2-6,27.2c-2.1,7.9-4,15.9-5.9,23.9c-1.4,6.5-2.9,13-3.9,19.6
		c-1.3,6.1-2.1,12.3-2.5,18.6c-0.1,1-0.1,2.1-0.2,3.1l14.3,7.1l0,0c0-1,0.1-2.1,0.1-3.1c0.4-6.2,1.2-12.4,2.5-18.4
		c1-6.6,2.5-13,3.8-19.5c1.9-8,3.7-16,5.8-24c2.1-9.1,4.6-18.1,6.2-27.3c1.4-8.9,2.9-17.7,3.7-26.6c0.6-9.1,0.7-18.2,0.5-27.4
		c-0.1-7.3-0.2-14.7-1.3-21.9c-0.9-6.1-1.3-12.2-2.6-18.2c-1.4-6.2-2.9-12.3-5-18.3c-1.4-4.2-2.8-8.5-3.9-12.7
		c-1-4.1-1.5-8.2-2.4-12.2c-1-5.8-1.2-11.8-2.3-17.7c-0.7-7.5-2.2-14.9-4.8-22c-0.7-1.9-3.7-11.3-5.7-12.5
		c-4.9-2.9-9.9-5.5-14.9-8.2c-2.9,2.1-1.6,6-1.4,9c0.7,5.3,1.6,10.6,2,16c0.9,4.2,2.5,7.4,6.7,9.4c3.7,2.4,5.7,5.7,4.5,10
		c-1,6-1.5,12-2.5,18c-1.4,10.8-2.2,21.6-3.9,32.3c-0.7,6.3-1.4,12.6-2.2,18.8c-0.2,1.6-0.4,3.3-0.7,4.9c-0.2,1.1-1.3,2.5-0.5,3.2
		c4.1,3.5,9.3,5.6,14,8.4c-1.3-2.7-1.2-5.9-1.5-8.8c-0.5-4.8-1-9.7-1.1-14.5c-0.6-11.2-1.5-22.4-0.8-33.6c0.4-8.9,0.9-17.9,2.8-26.6
		c1.4-6.9,0.9-1.5-13.7-9.7c-0.2-0.1,0.6,0.1,0.7,0.4c0.9,1.7,0.5,4.1,1.7,5.7c1.6,3.6,3.4,7.1,5,10.7c1.3,3.2,3.2,6.1,4.9,9.2
		c2.3,3.5,4,7.4,6.5,10.9c2.8,5,5.8,9.9,8.5,14.9c2.3,4.6,3.6,9.4,4.9,14.3c1.1,4.8,1.7,9.7,2.4,14.6c0.3,5.3,0.7,10.6,1.5,15.9
		c0.5,5.3,0.1,10.6-0.1,15.8c-0.5,6.5-1.4,12.9-2.8,19.2c-0.9,5.2-2,10.5-3.7,15.5c-1.5,5.7-3.8,11.2-5.8,16.7
		c-2.1,5.9-4.4,11.6-5.9,17.7c-1.9,7.5-4.3,15-6.2,22.5c-3.2,12.8-6.4,25.6-9.5,38.4c-2.4,10.3-5.1,20.5-8.4,30.5
		c-0.6,1.8-3.2,3.9-2,5.5c3.3,4.4,9,6.5,13.5,9.8c2.2-3.8,3.5-7.9,6.1-11.5c0.6-0.9,2.8-1.6,2.1-2.4c-3.4-3.6-8.2-5.7-12.3-8.6
		c2.2,3.7,1.2,1.2,0.4,8.2c-0.8,7.4-1.6,14.8-2.8,22.2c4.8,2.7,9.5,5.7,14.5,8c0.4,0.2,0.3-0.8,0.3-1.2c0.8-3.4,1.1-6.9,2.7-10.2
		c-4.6-2.7-9.3-5.3-13.7-8.1c-0.3-0.2,0.9-0.3,1,0c0.4,1.1,0.2,2.2,0.1,3.4c-0.5,7.9-2.4,15.7-3.8,23.5c-3.3,11.4-3.7,5.2,11.1,16.4
		c0.4,0.3-0.9-0.6-1-1c-1.3-4-0.5-10.3-1.6-14.4c-0.2-1.5-0.4-3-0.6-4.5c-0.1-1.1,0.7-2.7-0.2-3.3c-18.4-12.4-15.5-8.7-17.5,3.8
		c-1.9,12.5-4.9,25-4.8,37.6c0.4,12.2,1,24.4,2.6,36.5c2.5,22.4,5.1,45,4.6,67.6c-0.3,7.1-0.4,12.3-0.9,19.3
		c-0.2,2.2-2.1,4.8-0.7,6.5c3.6,4.4,9.6,6.4,14.1,9.9c0.3,0.2-0.7,0.1-1,0.1c-0.2-1.2-0.4-2.4-0.6-3.6c-0.7-8.1-1-16.1-1.1-24.3
		c0-2.8,0-5.6,0-8.4c0-2.1,1.5-4.5,0.2-6.2c-3.7-4.7-9.3-7.6-13.9-11.4c-1.9,1.6-1.1,0.7-2.1,4.3c-2.1,7.7-3.1,15.9-6.8,23.1
		c4.3,2.7,8.1,6.1,12.8,8c1,0.4-0.5-2.1-0.5-3.1c-0.5-9.5,0.7-19,0.8-28.5c0.2-2.2,0.3-4.3,0.6-6.5c0.8-7.7,2.6-4.9-13.2-11.2
		c-1-0.4,0.6,1.9,0.7,2.9c0.4,3.4,0.7,11.5,0.8,14.4c0,2.8,0,5.7,0.1,8.5c0,2.3-1.4,5.1,0.1,7c15.4,19.5,15,12.6,17.3,0.7
		c1.8-8,3.5-16,6.3-23.8c0.8-2.1,3.8-4.3,2.7-6.2c-2.6-4.5-8.3-6.6-12.2-10.1c-0.5-0.4,1.2,0.6,1.8,0.9c0.3,2.1,0.8,4.1,0.9,6.2
		c0.4,5.3,0.3,18.2,0.3,22.9c-0.1,16.1-0.3,32.2-0.8,48.3c-0.2,4.9-0.4,9.7-0.6,14.6c-0.2,3.4-2.6,7.3-0.8,10.3
		c3.1,5.1,9.4,7.6,14,11.5c0.2,0.2-0.8-0.2-0.8-0.5c-0.4-1.9-0.3-11.2-0.3-12.3c0.1-2.4,0.2-4.8,0.4-7.3c0.1-1.8,1.8-4.1,0.5-5.5
		c-3.7-4.1-9-6.7-14-9.4c-0.7-0.4,0.7,1.4,0.8,2.1c0.7,4.4,0.8,11.1,1,15.2c0.3,9.1,0.5,18.2,0.4,27.3c0,1.9-1.5,4.3-0.1,5.7
		c4,4.1,9.4,6.5,14.6,9.1c0.5,0.3,0-1.1,0-1.7c0.5-18.7,1.5-37.4,4.2-55.8c0.6-2.7,1-5.5,1.7-8.2c0.4-1.5,2.6-3.2,1.5-4.4
		c-3.4-3.8-8.6-5.6-12.9-8.5c0.4,0.8,0.9,1.5,1.2,2.4c0.7,2.7,1.6,10.6,1.9,12.8c0.7,7.5,0.8,8.9,1.4,16.2c0.2,2-1,4.5,0.5,6
		c4.1,4.2,9.8,6.6,14.8,9.8c0.3,0.2-0.4-0.5-0.7-0.7c-0.4-1.5-0.7-3-1.1-4.5c-4.4-26.9-7.4-54.1-8.2-81.3c0.1-3.8,0.1-7.6,0.3-11.4
		c0.1-1.9,2-4.1,0.7-5.6c-3.3-3.8-8.1-6.4-12.9-8.3c-1.3-0.5,1.2,2.5,1.5,3.8c1.3,5.4,1.8,13,2.3,18.3c0.6,9.6,1,13.9,0.8,23.4
		c-0.1,2.8-2.2,6-0.6,8.3c3.1,4.6,9,6.8,13.3,10.3c2.5,2-19.8-13.2-5-8c-7.2-23.2-14.3-46.5-19.5-70.2c-1.4-9.8,0.4-9.8-16.2-13.5
		c-1.3-0.3-0.3,2.5-0.4,3.8c-0.2,2.3-1.2,16.6-1.2,17.5c-0.3,3.6-0.6,7.1-0.8,10.7c-1.2,11.5-3.3,9.6,13.6,17c0.9,0.4,0.6-1.8,1-2.7
		c1.5-4.1,4.2-11,5.8-14.7c1.2-2.9,2.6-5.7,3.9-8.5c6.8-11.2,5.2-3.8-7.7-16.2c-0.4-0.4,1.4-0.3,1.6,0.2c0.9,2.3-1.6,9-1.7,11.6
		c4.6,3.4,8.9,6.9,13.7,10.1c0.3,0.2,0.8-0.9,2.1-2.4c0.7-0.8,2.9-1.6,2.2-2.3c-7.1-7.8-17.8-9.7-9.8-8.1c0.2,1.4,0.7,2.9,0.7,4.3
		c0.1,2.2-0.3,4.4-0.4,6.5c-0.3,4.3-0.6,8.6-1,12.8c-0.1,1.2-1.4,2.9-0.4,3.7c4.3,3.6,9.9,5.5,14.8,8.2c2.7-4.5,4.1-9.8,5-14.8
		c-4.7-3.1-9.2-6.5-14-9.4c-0.1-0.1-1.4,0.8-1.8,1.6c-1.7,2.5-2.3,5.5-3.1,8.2c-3,14.2-5.5,28.4-7.4,42.7c-1.5,8.9-2,11.8-3.8,20.5
		c-0.4,2.1-2.9,4.7-1.4,6.3c3.5,4.1,9,6.3,14.1,8.3c2.4,0.9-3.5-10.9,0.6-7.4c1.5-15.3,3.5-30.5,5.8-45.6c0.7-4.2,2-11.7,3-16
		c0.3-1.4,2.2-3,1.2-4c-19.5-19.5-13.4-10.8-12.6-5c0.3,2.1,0.4,4.2,0.5,6.3c0.6,9.6,1.2,19.1,1.4,28.7c0,2.6-1.6,5.7,0,7.9
		c3.4,4.8,8.8,8.1,13.9,11.3c1,0.6-0.7-2.2-1-3.4c-3.9-21.3-7.7-42.7-10.3-64.1c-1-9.5-2-18.9-1.9-28.5c0-1.7,1.4-3.8,0.3-5
		c-3.7-4.1-8.7-7-13.7-9.6c-0.9-0.5,0.4,1.9,0.5,2.9c1.1,18.6,2.3,37.2,3.6,55.8c1.6,30.6,2.6,61.4,0.2,92
		c-1.4,11.8-2.9,6.7,12.8,17c0.5,0.3-0.4-1.1-0.6-1.6c-0.9-2.7-1.6-5.5-1.9-8.3c-1.2-6.9-2.3-13.8-3.8-20.6c-2-9-4.1-18-5.6-27.1
		c-1.5-6.7-2.7-13.5-3.7-20.3c-1.2-8.1-1.9-16.1-2.3-24.3c-0.1-6.8,0-13.6-0.7-20.4c-0.9-10.1-0.6-20.1,0.9-30.2
		c2.5-19.7,5-39.9,13-58.4c5.5-9.1,4-3-9.2-13.5c-0.5-0.4,1.6,0.2,1.9,0.8c2.3,4.4-0.3,16.4,0.5,21.1c-0.6,24.2-1.8,48.5-2.7,72.7
		c-0.2,3.3-0.3,6.5-0.5,9.8c-0.1,2.1-1.8,4.8-0.4,6.4c18,20.1,14.1,9.1,14.9-0.5c0.7-10.9,1.9-21.7,2.8-32.6
		c0.9-9.2,2.4-18.4,2.7-27.7c0.6-10.7,1.7-21.3,3.6-31.9c1.9-11,3.3-22.1,5.1-33.2c1.7-11.2,3.1-22.5,4.1-33.8
		c0.5-7.5,0.2-15,0.2-22.5c0-11.7,0-23.3,0.4-35c0.3-7.3,0.5-14.6,1.4-21.9c0.2-1.4,1.7-3.2,0.7-4.2c-4.3-4.2-19.6-11.7-13.1-8.5
		c1.3,13.3,0,26.7,0.4,39.9c0.1,18.1,0.2,36.2-0.8,54.3c-0.9,11.6-2.5,7,13.3,17.5c0.6,0.4-0.4-1.3-0.4-1.9
		c-0.5-4.1-0.3-8.2-0.8-12.3c-0.8-9.4-2.1-18.9-3.4-28.2c-1.6-10.6-2.8-21.4-5.7-31.8c-0.1-0.2-2.2-7.4-2.9-7.9
		c-4.9-3.8-10.3-6.9-15.7-9.9c-0.6-0.4-1.5-0.3-2.2-0.1c-2,0.5-3,2.4-4.2,3.8c-0.9,1.3-3.8,5.6-4.9,6.8c-0.4,0.5-1.9,0.9-1.4,1.3
		c15.4,12.6,12.4,11,12.6,2.8c0.1-9.5,0.6-19,2-28.5c2.8-18.2,7.1-36.1,12.1-53.9c2.6-10,5.9-20,7.1-30.3c0.2-5.8,0.6-11.5,1.3-17.2
		c1-8.4,0.9-16.9,1.5-25.3c0.8-8.7,1.5-4-14-12.2c-0.4-0.2,0.1,0.8,0.1,1.2c0,1.3-0.2,2.5-0.3,3.8c-0.2,2.1-0.3,4.2-0.5,6.3
		c-0.2,2.9-0.5,5.9-0.7,8.8c-1.1,11.8-2.3,23.6-4.2,35.3c-0.6,3.4-1.2,6.8-2,10.2c-0.4,1.9-2.9,4.1-1.7,5.7
		c3.1,4.1,8.6,5.9,12.9,8.9c-0.4-0.9-1.1-1.6-1.2-2.6c-0.7-3.7-0.5-13.1-0.4-16.1c0.3-9.9,1.1-19.9,2.4-29.7
		c2.2-9.8,3.1-5.9-11.7-14.4c-0.9-0.5,1.4,1.6,1.7,2.6c0.7,2.2,1,4.5,1.3,6.7c0.7,5.2,1.4,18.3,1.7,22.9c0.4,13.6,1,27.1,0.3,40.7
		c-0.1,2.5-2.3,5.5-0.7,7.5c21.6,27.7,14.7,11.6,12.9,7.1c-1.7-16.5,0.4-33.2,2.2-49.6c0.9-5,1.2-7.9,2.8-12.6
		c0.3-0.9,1.9-1.9,1.2-2.5c-21.1-19.3-12.2-11-12.4-5.5c0,1.9-0.4,3.9-0.6,5.8c-3.6,19.7-7.2,39.6-14.5,58.4
		c-1.7,3.3-3.3,7.3-5.9,10.1c-0.7,0.8-3.4,1.1-2.7,1.9c3.2,3.3,7.9,4.9,11.7,7.6c0.7,0.5-1.7-0.5-2.3-1c-0.8-0.6-1.3-1.6-1.9-2.4
		c-3.8-6.9-7.1-14-9.2-21.6c-2-7.5-3.5-15.1-3.6-22.9c0.2-11.1,0.7-22.2,2.5-33.2c1.2-7.3,2.5-14.5,4.5-21.7c0.6-2,1.2-4,1.9-5.9
		c0.4-1.3,2.5-2.9,1.5-3.9c-3.8-3.8-9.2-5.8-13.8-8.7c1.1,0.1,0.5-0.1,0.5,1.8c0,3.4,0,6.8,0.1,10.3c0.1,5.4,0.5,10.7,1.2,16.1
		c0.7,5.2,0.7,10.3,0.6,15.5c0,7.1,0,14.1,0.1,21.2c0.1,9.6,0.2,19.2,0.1,28.7c4.9,2.6,9.7,5.5,14.8,7.7c0.5,0.2,0.2-1,0.3-1.5
		c0.1-1,0.3-2,0.4-3c0.5-3.8,1.1-7.6,1.6-11.4c0.6-6.4,1.4-12.8,1.4-19.2c0.6-10.1,1.6-20.2,2.1-30.3c0.7-10.3,1.7-20.6,2.1-31
		c0.6-9.1,1.3-18.2,1.8-27.2c0.9-8.8,2.4-17.5,4-26.2c1.6-7.8,1.5-3.1-13.7-11.6c-0.4-0.2-1.3,3.1-1.4,3.4c-0.2,0.5-0.4,1-0.6,1.6
		c-1.6,3.4-2.8,6.9-4,10.4c-1.4,3.9-2.1,8-3.3,12c-1.8,5.1-4.1,10-6.2,15.1c-1.7,4.9-3.3,9.8-5.4,14.6c-1.5,4.3-3.5,8.5-4.5,13
		c-0.9,4.7-2.2,9.4-2.4,14.3c-0.7,7.3-0.6,14.5-0.6,21.8c0,4.5,0,8.9,0,13.4c0,4.4,0,8.8,0,13.1c0,6.1,0,12.1,0,18.2
		c0.1,4.4,0.2,8.8,1.2,13.2c1.1,4.6,2.2,9.2,2.6,14c0.2,4.5,0.8,9,3.2,12.9c4.9,6.8,1.4,2.5,17.2,11.5c3.3,1.9,6.1,0.4,7.8-2.4
		c3.2-5.8,4.8-12.4,8.6-17.9c1.2-1.8,2.1-3.4,3.6-4.9c0.6-0.6,1.2-1.3,1.9-1.7c0.4-0.3,1.8-0.1,1.4-0.4
		c-13.8-10.1-13.7-11.6-11.3-4.8c0.9,14.9-2.4,29.7-4.7,44.4c-2.1,8.1-2.9,6,12.5,12.2c0.9,0.4-0.1-1.9,0-2.9
		c0.9-8.2,2.8-16.2,4.2-24.4c2.7-11.9,4.3-8.2-11.7-18.2c-0.7-0.4,0.1,1.5,0,2.3c-0.7,6.5-2.1,13-3.5,19.4
		c-1.5,5.3-1.4,5.8-3.4,10.4c-0.3,0.6-1.5,1.3-1,1.7c22.7,18.1,12.9,11.7,12.9,6.1c0-1.4,0.2-2.8,0.3-4.2c0.7-7.3,1.6-14.6,2.9-21.8
		c0.3-1.6,2.1-3.5,1-4.7c-3.8-4.1-9.3-6.3-14-9.4c2.4,0.3,1.1-0.1,0.9,4.7c-0.1,2.9-0.3,5.7-0.5,8.6c-1,12.9-2.6,25.8-4.4,38.7
		c-1.7,10.5-1.8,12-3.6,21.8c-0.4,2.2-2.6,4.7-1.3,6.6c11,15.7,12.3,14.9,16.3,6.7c1.5-3.1,3.9-8.1,5.7-11.1
		c0.8-1.3,3.5-2.5,2.5-3.7c-3.1-3.9-8.3-5.8-12.4-8.7c0.3,0.7,0.8,1.4,0.8,2.1c0.1,1.8-0.3,3.7-0.4,5.5c-3,20.5-5.7,41.1-10.7,61.3
		c-3.1,10.2-2.8,3.2,12,13.9c0.3,0.2-0.9,0.3-1.1,0c-0.4-1-0.1-7.4-0.1-7.8c0.1-2.1,0.2-4.1,0.2-6.2c0.7-12.8,1.3-25.7,4.3-38.2
		c-4.6-2.7-8.9-5.9-13.8-8.1c-0.7-0.3,0.3,1.4,0.3,2.1c0.3,7.6-0.5,15.2-0.3,22.8c-0.2,7-0.4,14-0.7,20.9c-0.1,1.3-1.2,3-0.2,3.9
		c4.2,3.7,9.5,6.3,14.6,8.9c0.4,0.2,0.5-0.6,0.8-1c2.7-5.7,6.1-10.7,12.1-13.8c1.5-0.7,4.3-2.3,6-2.7c0.6-0.1,2.5,0.4,2,0.1
		c-3.9-2.8-8.3-5-12.4-7.5c0.3,0.4,0.7,0.8,0.8,1.3c0.2,0.6,0.1,1.3,0.2,1.9c-0.8,2.6-1.8,4.9-3.5,7.1c-0.5,0.7-1.1,1.4-1.8,2
		c-0.5,0.5-2.3,0.8-1.7,1.3c3.9,3.2,8.6,5.3,12.9,8c-0.3-0.1-0.8-0.1-0.9-0.4c-0.2-0.6,0-1.2,0-1.9c0-3.8,0-7.7,0.1-11.5
		c0.3-8.4,0.8-16.9,1.8-25.3c1.2-11.1,2-22.3,4.4-33.3c2.4-14.4,5.1-28.8,8.9-42.9c0.5-1.8,1-3.6,1.5-5.4c0.4-1.1,2.1-2.5,1.2-3.4
		c-26.2-25.3-13.7-12.1-13.2-7.1c0.2,2.5-0.1,5,0.1,7.5c0,9.2,0,18.4-0.4,27.7c-0.4,6.5-1,12.9-2.3,19.3c-1,6.5-2.6,13-5,19.1
		c-4.1,9.3-8.4,18.9-14.8,27c4.3,2.8,8.4,5.9,13,8.3c0.5,0.3-0.3-1.1-0.3-1.6c0.1-6.8,2-13.6,2.5-20.4c1.6-11,2.7-22.1,5.4-32.9
		c-4.6-3.1-9-6.5-13.9-9.2c-0.5-0.3-0.2,1-0.2,1.5c-0.6,5.5-1.1,11.1-1.6,16.6c-0.6,11.8-1.8,23.5-2.4,35.3
		c-0.6,10.5-1.3,20.9-1.7,31.4c-0.6,7.3-1.8,14.5-2.1,21.8c-1.1,12.3-1.3,24.5-1.7,36.8c-0.9,17.5-1.8,35.1-4.8,52.4
		c-2.4,7.4-1.7,2.4,12.9,10.5c0.3,0.2-0.6-0.4-0.8-0.8c-1.4-2.6-1.6-5.9-2.3-8.7c-1.9-8.6-3.9-17.2-5.6-25.9
		c-1.6-7.5-2.9-15.1-3.8-22.8c-0.9-7-1.5-14-1.3-21c0-6-0.1-12.1-0.1-18.1c-0.1-8.9-0.1-17.7,0-26.6c0.3-8.8,1-17.6,3-26.3
		c4.4-20,8.7-40,13.2-60c2.3-10.4,4.7-20.7,6.6-31.1c0.4-2.2,0.8-4.4,1.2-6.6c0.2-1.3,1.6-2.9,0.6-3.8c-4.1-3.6-9.5-5.4-14.3-8.1
		c0.1,10.5-0.2,21-1,31.5c4.8,2.7,9.3,6,14.4,8.1c0.6,0.3,0.1-1.3,0.1-1.9c0.2-4.9,0.3-9.8,0-14.7c-0.1-1.9-0.4-3.9-0.6-5.8
		c-1.4-11.8-3.3-23.5-5.4-35.1L3547.5,2790.3L3547.5,2790.3z"/>
	<path id="path1053" d="M3545,3182.3c-0.8,7-0.9,14-1.6,21c-1,6.8-1.4,13.7-1.7,20.5c-0.5,6.7,0.2,13.4,0.9,20.1
		c0.5,6.2,0.7,12.5,1.3,18.7c0.8,6.2,1.1,12.4,1.3,18.6c0.1,5.2,0.1,10.4,0.1,15.6c0,4.7,0,9.4,0,14.2c0,4.6,0,9.1,0,13.7
		c0.4,4.7,1.1,9.4,2.1,14c1.2,5.8,2.1,11.7,3.2,17.6c0.9,5.5,2.5,10.9,4.3,16.2c2.3,6.2,4.2,12.6,6.5,18.8
		c2.9,6.6,5.2,13.5,7.4,20.3c1.7,5.9,2.9,11.9,4.4,17.9c1.2,5.1,2.3,10.2,3.3,15.4c0.9,5.7,2.2,11.3,3.7,16.9
		c1.4,5.1,2.8,10.2,3.9,15.4c1,5.1,1.2,10.3,1.3,15.5c0.2,5,0,9.9-3.3,14c-0.4,0.3-1.7,1.5-2.5,1.3c-0.3-0.1-1-1-0.7-0.8
		c4.5,2.2,8.7,4.8,13.2,6.9c0.4,0.2-0.5-0.7-0.7-1.1c-0.2-0.5-0.3-1.1-0.5-1.7c-0.5-4.1-0.9-8.3-1.9-12.4c-1.1-3.3-1.8-6.6-3.2-9.8
		c-2-3.7-3.7-7.6-5.7-11.3c-2.3-4.4-4.3-9-5.9-13.7c-1.4-3.7-2.1-7.6-2.6-11.4c0-0.1,0.1-0.3,0-0.4c-17.5-7-14.8-8.9-14.8,2.2
		c0.1,5.2,1.5,9.9,4.2,14.3c2.9,4.4,6.9,8,10.5,11.8c3.1,3.9,5.4,8.2,8,12.4c3.5,4.8,2.7,4.1,15.8,6.1c1,0.2,0.2-2,0.2-2.9
		c0-4-0.3-8.1-0.7-12.1c-0.9-6.5-1.5-13-2.6-19.5c-1.2-5.7-3.2-11.2-4.8-16.8c-1.9-5.5-3-11.1-4.2-16.7c-1.6-7.5-3.2-15.1-4.9-22.6
		c-2.1-9.6-1.2-10.6-16.8-12.4c-1.1-0.1,0,2.2,0,3.3c0,1.4,0.1,2.7,0.2,4.1c0.6,9,2.1,17.9,4.3,26.6c1.7,6.4,3.4,12.8,5.2,19.2
		c1.4,5.1,2.8,10.1,3.8,15.3c0.3,1.4,2.1,10.8,3,11.3c4.9,2.4,10.1,4.3,15.2,6.5c2.1-6.1,0.8-12.7-0.2-18.9
		c-1.5-8.3-3.8-16.5-6.1-24.6c-2.3-7.8-4.9-15.5-7-23.3c-2.1-7.7-3.4-15.6-5-23.4c-0.7-4.4-2.2-3.7-14.2-7.2
		c-0.9-0.3,0.7,1.6,1.1,2.4c4.7,10.3-1.8-4.3,3.1,6.9c3.1,7,6.3,14,9.6,20.9c4.1,7.8,9,15.2,14.4,22.2c5.8,8,10,10.7,21.4,14.7
		c1,0.4,2-2.7,2.8-4.6c2.1-8.7,1.9-17.7,1-26.5c-0.7-6.3-5.4-29.5-19.3-18.2c-3.2,4.5-3.1,10.5-3.4,15.7c-0.2,6.1-0.3,12.2-0.3,18.4
		c0,4.4,0,8.8,0,13.2c0.6,7.4,3.5,6.6,16,8.9c1,0.2,0.7-1.8,0.8-2.8c0.4-3-0.1-5.6-0.4-8.6c-1.9-10.9-5.8-21.4-9.6-31.8
		c-2.7-7.3-5.1-14.8-7.1-22.4c-2.2-8.9-4.6-17.7-6.8-26.5c-1.6-6.9-2.7-13.8-4.4-20.7c-5-1.6-9.7-4.4-14.9-4.9
		c-1.2-0.1-0.2,2.4-0.2,3.6c-0.3,8,0.1,15.9,0.7,23.8c1.5,10.2,2.2,20.6,4.9,30.5c4.9,1,9.8,4.4,14.6,3.1c2.3-0.6-0.4-4.5-0.8-6.7
		c-2.1-15-5.5-29.8-8.4-44.6c-0.5-2.8-2.4-12.5-3.2-16.1c-0.2-1,0-2.5-0.9-3c-4.6-2.9-9.5-6.1-15-7.1c-1.4-0.3-0.6,2.8-0.6,4.1
		c0,2,0.3,4,0.5,6c2,16,5.7,31.7,9.5,47.3c2.3,10.1,5.4,19.9,9.8,29.3c6.1,11.7,7.4,14.6,22.7,20.9c0.8,0.3,1.4-1.1,2.1-1.6
		c4.2-8.2,4-17.6,3.9-26.6c-0.2-3.9-0.6-7.7-1.4-11.6c-0.1-0.6-0.7-3.7-1.2-3.8c-5.1-1.6-10.4-2.7-15.5-4c-1.6,10.9-2,22-2.5,33
		c-0.6,7.5,0.3,14.9,0.9,22.4c0.5,8.1,0.6,8.9,15.8,9.8c1.5,0.1,0.6-2.8,0.8-4.2c0.8-5.1,0.7-6.4,0.9-11.7
		c0.1-12.3-1.5-24.5-3.6-36.6c-1.2-7.1-3.5-13.9-5.2-20.9c-1.5-6.3-2.8-12.7-3.8-19c-1-7.2-1.7-14.5-2.9-21.7
		c-1.2-5.4-1.6-10.8-2.3-16.2c-0.6-5.1-1.4-10.2-2.5-15.3c-1.4-6-3-11.9-4.5-17.8c-1.9-7.2-3.6-14.5-5.3-21.8
		c-1.3-5.7-2.8-11.3-3.8-17.1c-1.2-4.5-1.9-9-3-13.4c-1.2-4.6-1.5-9.3-1.7-14c-0.2-6.5-0.2-13-0.2-19.5c0-3.2,0.1-6.5-0.2-9.7
		c0-0.5-0.3-2.8-0.4-2.8c-5-1.8-10.1-3.2-15.1-4.8c-1.5,15.5-1.6,31.2-2,46.8c-0.5,13.7,0.2,27.5,1.5,41.2
		c1.6,12.9,3.5,25.7,5.3,38.5c1.7,9.6,3.1,19.3,4.3,29c1,9.5,1.5,18.9,2.5,28.4c0.8,6.3,0.2,6.7,15.1,6.8c1.6,0,0.1-3.1,0.2-4.7
		c0.1-8.7-0.3-17.2-1-25.9c-2-16.2-3.8-32.4-6.8-48.4c-4.9-1.9-9.5-5.5-14.8-5.6c-1.9,0,0,3.6,0,5.4c0.3,9.4,1.2,18.8,2.2,28.2
		c0.2,1.9,0.4,3.8,0.6,5.7c0.2,1.5,0.3,2.9,0.5,4.4c0.1,0.8,0.2,1.7,0.3,2.5c0,0.2-0.2,0.6,0.1,0.7c16.3,6.2,15.3,9.7,14.3,0.6
		c-1.5-15.1-2.4-30.2-3.5-45.3c-0.7-9.4,1.1-11.7-15-13.6c-1.7-0.2,1,3,1.6,4.6c2.9,8.2,3.1,8.4,6.7,17
		c6.7,15.3,12.2,31.1,17.4,46.9c2,6.6,0.3,6.5,15.2,7.7c1.4,0.1-0.5-2.6-0.7-3.9c-1.5-8.6-0.6-3.1-2.1-12.9
		c-1.2-7.6-2-15.2-3.3-22.7c-0.2-1.2-1-6.7-2-7.3c-5.2-2.6-10.8-4.2-16.2-6.3c-4.8,7.1-6.7,15.4-10,23.2c-0.5,1.1-2.7,2.5-1.7,3.2
		c3.8,2.9,8.9,3.7,13.3,5.5c-0.4-1.7-1-3.4-1.2-5.1c-0.8-5.5-1.1-15.4-1.3-20.6c-0.5-11.4-0.9-22.8-1.2-34.2
		c-0.5-8.4,0.9-17.1-16.3-12.3c-2.7,0.8-0.7,5.4-0.9,8.1c-0.9,10.1-0.9,13.3-1.3,23.7c-0.1,4-0.2,7.9-0.3,11.9
		c-0.1,4.6-0.4,11.4,0.1,16.3c0.1,0.9-0.2,2.3,0.6,2.7c17,8.9,14.5,10,17-0.3c4.1-24.3,3.5-48.9,3.2-73.4
		c-0.2-12.1-0.6-24.2-0.9-36.3c-0.3-14.7-0.4-29.4-0.4-44.1c0-3,0-6,0-9c0-2.4,0-4.9,0.1-7.3c0-1.6,0-3.2,0.1-4.7
		c0-0.4,0.5-1,0.2-1.1c-16-6.8-14.6-9.5-14.4-0.6c0.4,11.8,0.1,23.7-1,35.5c-0.6,5.7-1.7,11.4-3,17c-0.6,2.6-0.9,5.7-3.1,7.5
		c4.5,2.1,8.8,4.6,13.5,6.3c0.8,0.3-1.1-1.3-1.4-2.1c-2-4.2-2.5-9.2-3.2-13.7c0-0.8-0.6-3.2,0.5-4.1c0.7-0.5,2.8-0.3,3.4-0.1
		c0.7,0.2,2.7,1.4,2,1c-3.9-1.9-7.9-3.8-11.8-5.8c4.5,7,5.1,15.5,5.7,23.6c0.4,5.8,0.3,11.5,0.3,17.3c0,5.8,3.7,10.3,7.2,14.8
		c4.3,5.5,8.2,11.1,11.6,17.1c2.7,4.1,3.5,8.8,4.4,13.5c1.2,6.5,1.4,13.2,1.5,19.8c0.1,5.1,0.1,10.3,0.1,15.4
		c-0.1,4.3-0.1,8.5,0.5,12.8c0.7,3.8,1.1,7.5,1.3,11.3c0.4,3.7,0,7.2-0.6,10.8c-0.3,1.8-0.4,3.7-0.9,5.4c-1.6,6-9.6-2.8,13.3,7.7
		c-1.1-8.4-0.1-17,0.3-25.4c0.4-6.1,0.5-12.3,0.6-18.4c-0.2-7.8,0.5-15.7,1.1-23.5c0.4-5.4,0.7-10.9,0.8-16.3
		c-0.2-4.3,0.3-8.5,0.8-12.8c0.1-0.8,0.2-1.6,0.3-2.3l-14.4-7.2l0,0c-0.1,0.8-0.2,1.6-0.3,2.3c-0.6,4.3-1.2,8.5-1,12.9
		c-0.1,5.4-0.2,10.9-0.6,16.3c-0.5,7.8-1.4,15.7-1.2,23.5c-0.1,6.1-0.2,12.3-0.4,18.4c-0.4,8.6-1,17.2-0.8,25.8
		c16.1,9.4,14.8,13,16.7,0.9c0.7-3.7,1.2-7.3,0.8-11.1c-0.2-3.8-0.5-7.7-1.2-11.5c-0.7-4.2-0.7-8.4-0.6-12.6c0-5.2,0-10.3-0.1-15.5
		c-0.2-6.7-0.3-13.4-1.4-20c-0.9-4.8-1.4-9.8-4.2-14c-3.6-6-7.2-11.8-11.6-17.3c-3.2-4.3-7.2-8.3-7.5-13.9c0-5.8,0-11.6-0.3-17.4
		c-0.6-8.3-1.4-16.9-5.1-24.5c-5.3-3.3-10.5-6.7-15.9-9.8c-2.8-1.6-7.2-0.2-7.8,3c-0.2,0.9,0.1,1.9,0.1,2.9c0.7,4.7,1.6,9.4,2.9,14
		c0.3,1,0,2.4,0.9,2.9c4.9,3.1,10.4,5,15.7,7.5c2.2-2.5,2.5-5.2,3.2-8.4c1.2-5.7,2.4-11.4,3.1-17.1c1.2-11.8,1.2-23.7,1.2-35.5
		c0.2-9.5,1.4-4.8-14.4-13.4c-0.4-0.2,0.1,0.8,0.2,1.3c0.1,1.6,0.1,3.2,0.1,4.9c0,2.5,0.1,4.9,0.1,7.4c0,3,0,6,0,9
		c0,14.6-0.2,29.3-0.1,43.9c0.3,12.2,1.1,24.4,1.5,36.6c0.7,24.3,1.3,48.8-3.5,72.8c-2.7,9.5-3.6,6.1,11.5,14.1
		c0.9,0.4-1-1.6-1.2-2.6c-0.4-2.1-0.6-4.3-0.6-6.5c-0.2-4.5,0.1-17.9,0.2-21.8c0.5-10.5,0.4-13.2,1.6-23.4c0.3-2.6,2.6-5.5,1.2-7.7
		c-3.1-4.6-8.7-7.3-13.4-10.5c-2.5-1.7,15,18.6,1.8,8.8c0.9,20.2,1.2,40.4,2.4,60.5c5.2,2.7,10,6.6,15.7,8.1
		c1.3,0.3,1.1-2.3,1.6-3.5c2.4-6.1,4.2-12.4,7.3-18.2c0.7-1.3,1.6-2.5,2.4-3.8c-4.1-2.8-8-5.9-12.2-8.5c-0.7-0.4,1.2,1.3,1.5,2
		c0.6,1.6,0.8,3.3,1.1,4.9c1.5,7.5,2.2,15.1,3.4,22.7c1.6,12.1,0.3,2.4,1.8,12.8c0.2,1.2-0.5,2.9,0.5,3.7c4.5,3.6,9.9,5.8,14.9,8.6
		c0.1,0.1-0.2-0.3-0.2-0.4c-0.3-0.8-0.6-1.7-0.9-2.5c-5.7-15.8-11.1-31.8-17.9-47.2c-2.9-7.2-4-9.6-6.2-16.7c-0.5-1.4,0-3.5-1.2-4.4
		c-19.3-14.2-14.6-9.5-13.9,0.2c1.4,15.1,2.4,30.1,3.3,45.2c0.7,9.6-0.9,3.2,15.1,12.5c0.2,0.1-0.5,0-0.6-0.2
		c-0.3-0.8-0.4-1.7-0.5-2.6c-0.2-1.5-0.4-2.9-0.6-4.4c-0.2-1.9-0.5-3.8-0.7-5.7c-1.1-9.3-2.1-18.6-2.1-28c0-1.6,1.4-3.8,0.2-4.9
		c-3.9-3.8-9.4-5.6-14.1-8.5c1.7,5.9,2.4,11.9,3.4,18c1.6,10.2,3.2,20.3,4.1,30.6c0.6,8.5,0.9,16.9,0.5,25.5
		c-0.1,1.5-1.4,3.4-0.3,4.5c4,3.9,9.1,6.6,14.1,9.2c0.6,0.3-0.3-1.3-0.4-1.9c-1.3-9.5-1.7-19-2.7-28.5c-1.2-9.7-2.5-19.5-4.4-29.1
		c-1.9-12.8-3.7-25.6-5.3-38.5c-1.3-13.7-2.3-27.4-1.8-41.1c0.3-15.4,0.4-30.9,2.4-46.2c-4.7-3-9.4-5.9-14.1-8.9
		c-0.2-0.1,0.4,0.1,0.5,0.3c0.2,0.6,0.3,1.3,0.4,2c0.4,3.2,0.3,6.4,0.3,9.7c0,6.5,0,13,0.1,19.5c0.2,4.8,0.3,9.6,1.5,14.2
		c1.1,4.4,1.8,9,3.1,13.4c1.1,5.8,2.5,11.5,3.9,17.2c1.9,7.3,3.4,14.6,5.3,21.8c1.4,5.9,3,11.8,4.4,17.7c1,5.1,2.1,10.1,2.6,15.2
		c0.7,5.4,0.9,10.9,2.3,16.3c1.4,7.2,2,14.5,3,21.7c0.9,6.4,2.1,12.8,3.6,19.1c1.5,7,4.1,13.8,5.4,21c2.2,12,3.9,24.1,3.8,36.4
		c-0.3,5.5-0.1,6.3-1,11.4c-0.2,1.3-1.7,2.8-0.8,3.8c3.8,3.9,8.8,6.5,13.5,9.2c1.4,0.8-4.2-6.8-0.8-4.6c-0.6-7.4-1.5-14.8-1.1-22.3
		c0.3-10.9,0.5-21.8,2.4-32.6c-4.6-3.1-9.3-6-13.8-9.2c-0.3-0.2,1-0.1,1.2,0.2c0.5,0.8,0.6,1.8,0.8,2.7c0.9,3.7,1.3,7.5,1.6,11.4
		c0.2,8.4,0.6,17.3-3.3,25c-5.5,1.4-3.6,0.7,11,7.4c1,0.4-1.3-1.6-1.9-2.4c-2.1-3-3.8-6.3-5.6-9.4c-4.5-9.3-7.9-19.1-10.2-29.1
		c-3.9-15.5-7.8-31.1-9.5-47.1c-0.1-1.9-0.3-3.8-0.4-5.7c-0.3-7.4,3.1-3.9-13.3-10.7c-1-0.4,1,2,1.4,3c1.3,4,3,12.8,3.7,16.3
		c2.3,11.6,4.8,23.3,6.7,35c0.5,3.1,0.9,6.2,1.3,9.3c0.3,2.1-0.9,4.8,0.6,6.4c3.9,4.4,9.6,7,14.4,10.5c-3.8-9.6-3.5-20.4-5.5-30.4
		c-0.6-7.9-0.9-15.6-0.5-23.5c0.1-1.1,1.1-2.6,0.2-3.3c-4.2-3.7-9.5-6-14.2-9.1c1,2.3,1.3,4.9,1.9,7.3c1,4.5,2.1,8.9,2.9,13.4
		c2.1,8.9,4.6,17.6,6.7,26.5c1.9,7.7,4.3,15.2,7.1,22.6c4,10.2,7.8,20.7,9.8,31.5c0.3,2.4,0.8,5.4,0.5,8c-0.1,0.8-1.3,1.8-0.7,2.3
		c4,3.4,9,5.7,13.5,8.6c-0.2-0.3-0.6-0.5-0.7-0.8c-0.2-0.6-0.2-1.2-0.3-1.8c0-4.4,0-8.8-0.1-13.2c0-6.1-0.1-12.2,0.1-18.3
		c0.3-4.7,0-10.3,2.8-14.4c5.6-1.5,1.6-0.3-12.2-7.9c-0.5-0.3,0.8,0.7,1.1,1.1c0.6,1.1,1.5,4.9,1.7,5.8c0.3,1.3,0.4,2.6,0.6,3.8
		c1,8.6,1.2,17.3-0.8,25.8c-0.3,0.7-0.5,1.5-0.9,2.2c-0.2,0.3-0.6,0.4-0.9,0.7c4.2,2.5,8.3,5,12.5,7.5c0.4,0.2-6.7-6.1-6.1-6.8
		c-5.5-6.8-10.5-14.2-14.5-21.9c-3.3-6.9-6.6-13.8-9.6-20.8c-1-2.3-2.1-4.5-3-6.8c-0.3-0.8-0.2-2-0.9-2.5c-4.4-3.1-16.8-14.6-15.2-6
		c1.9,7.8,3,15.7,5.1,23.5c2.1,7.9,4.7,15.6,7,23.4c2.3,8.1,4.6,16.2,6.1,24.5c0.9,5.8,2.1,11.8,0.6,17.6c4.6,2.7,9.1,5.5,13.8,8
		c0.3,0.2-0.6-0.6-0.7-0.9c-0.3-0.6-0.5-1.3-0.8-2c-0.9-2.6-1.3-5.3-1.9-7.9c-0.9-5.2-2.4-10.3-3.7-15.5c-2-6.3-3.6-12.8-5.4-19.2
		c-2.4-8.6-3.9-17.4-4.5-26.3c0-1.3-0.1-2.6-0.1-4c0-1,0.8-2.4,0-3c-4.3-3.5-9.6-5.8-14.4-8.7c0.2,0.3,0.5,0.5,0.7,0.8
		c0.6,1.3,1.5,5.4,1.7,6.4c1.6,7.5,3.2,15,4.7,22.5c1.3,5.6,2.3,11.3,4.3,16.8c1.4,5.6,3.5,11,4.8,16.7c1.2,6.4,1.8,12.9,2.8,19.4
		c0.5,4,0.7,7.9,0.7,11.8c0,0.8-0.7,2-0.1,2.5c4.4,3.2,9.5,5.3,14.2,8c0.3,0.1-0.6-0.2-0.8-0.3c-2.9-4.1-5-8.6-8-12.7
		c-3.5-3.9-7.5-7.3-10.6-11.6c-2.8-4.2-4.4-8.5-4.6-13.5c0-11.7,2.5-6.3-14.6-15.9c-0.1,0,0.1,0.1,0.2,0.2c0.9,3.9,1.2,7.9,2.6,11.7
		c1.7,4.8,3.5,9.4,5.8,13.9c2.1,3.6,3.6,7.5,5.7,11.2c1.6,3,2.2,6.4,3.3,9.6c1.3,4,1.6,8.2,2,12.3c0,0.1,0.4,3.2,0.8,3.5
		c8.1,5.5,12.5,12.6,19,6.7c3.6-4.6,3.9-9.2,3.8-14.9c-0.1-5.3-0.3-10.6-1.2-15.8c-1-5.2-2.5-10.4-3.9-15.5
		c-1.6-5.5-2.8-11.1-3.7-16.7c-1-5.2-2-10.4-3.3-15.5c-1.5-6-2.7-12-4.3-18c-2.3-6.9-4.4-13.8-7.5-20.4c-2.2-6.2-4-12.6-6.4-18.8
		c-1.9-5.2-3.5-10.5-4.4-16c-1.2-5.8-2.1-11.7-3.2-17.6c-0.9-4.5-1.6-9.1-2.2-13.7c0-4.6,0-9.1,0-13.7c0-4.7,0.1-9.4,0-14.1
		c0-5.2-0.1-10.4-0.2-15.6c-0.1-6.3-0.5-12.5-1.3-18.7c-0.6-6.2-0.8-12.4-1.3-18.6c-0.7-6.6-1.5-13.3-1-20
		c0.3-6.8,0.7-13.7,1.7-20.4c0.7-6.9,0.7-13.9,1.8-20.9L3545,3182.3L3545,3182.3z"/>
	<path id="path1110" d="M3579.2,3260.7c-1.5,6.8-2.3,13.6-2.9,20.5c-0.5,7.6-0.4,15.3-0.4,22.9c0,8.7,0,17.4,0,26.1
		c0,8.3,0,16.6-0.1,24.9c-0.6,3,1.1,8.4-0.7,11c-0.2,0.4-0.7,0.5-1.1,0.8c-3.1,0.4-6.2,0.1-9.2-1c-1.2-0.5-4.6-2.2-3.4-1.6
		c11.7,5.3,12.5,7.5,6.6,0.5c-7.4-11-9-24.3-9.6-37.1c-0.5-10.6,5.5-19.2,11.4-27.6c5-6,9.1-12.2,11.8-19.4
		c1.8-5.2,4.1-10.1,6.3-15.1c2.3-3.7,3.4-7.7,3.9-11.9c0.2-5.4,1-10.8,1.6-16.2c0.5-5.8,0.6-11.6,0.8-17.3c0-4.3,0.3-8.7-0.4-13
		c-1-4.6-1.2-9.3-1.3-13.9c-0.7-5.9-1.2-11.8-1.9-17.7c-0.9-5.1-1.5-10.3-1.8-15.5c-0.2-4.1-0.2-8.2-0.2-12.4
		c-0.1-5.2-1-10.4-1.4-15.6c-0.2-6.9-0.9-13.8-1.6-20.7c-0.6-5.5-0.7-11.1-0.8-16.7c0-5.5,0-10.9,0-16.4c0-1,0-9.9,0-9.9
		c-5-1.9-10.1-3.3-15.1-5c-1.7,11.3-3,22.7-4,34.1c-0.8,8.8-0.9,17.7-1,26.5c0,7.3,0,14.7,0,22c0.1,8.2,0.8,16.4,1.6,24.6
		c1,9.4,2.1,18.9,3.4,28.3c1.4,8.3,1.8,16.6,2.6,24.9c0.8,6.1,1.4,12.3,1.7,18.4c0.2,6.4,0.3,12.8,0.3,19.3c0,1.2,0,2.4,0,3.5
		c0,0.9,0,1.9,0,2.8c0,0.5-0.6,1.4-0.1,1.6c15.4,6.5,14.7,11,14.5,3.6c0.2-4.8-0.4-9.6,0.1-14.3c-4.9-2-9.4-5-14.6-5.9
		c-1.2-0.2,0.1,2.2,0.1,3.4c0,1.7,0.1,3.4,0.1,5.1c0.1,6.7,0.1,13.4,0.1,20.1c0,11.6-0.1,23.2-0.1,34.7c0,10,0,19.9,0,29.9
		c0,10.9,0.1,21.7,0,32.6c4-0.4-2.1,5.3-0.1,6.1c4.4,1.8,9.3,4.5,14,3.5c2.2-0.5-0.6-4.2-1-6.3c-1.1-6.7-2.3-13.4-3.4-20.2
		c-3.7-21-6.2-42.2-7.8-63.4c-0.3-7.6-1.8-15.3,0.7-22.7c3.3-6.2,6.4-12.5,9.1-19c1.9-5,2.6-10.2,2.8-15.4c0.2-6.5,0-13,0-19.6
		c0-8.5,0-17,0-25.5c0.1-8.8,0.1-17.5-0.5-26.3c-0.8-9.8-1.1-19.7-1.3-29.5c-0.5-9.7-1.2-19.5-1.6-29.2c-0.2-5.4-0.6-10.8,0.2-16.2
		c0.5-4.1,1.2-8.2,2.1-12.3c0.5-3.8,1.6-7.6,2.3-11.3c0.7-4.1,0.8-8.3,0.9-12.4c0.1-4.7,0-9.4,0-14.1c0.3-5.7-0.5-11.4-1.1-17.1
		c-0.4-4.6-0.6-9.3-1.3-13.9c-0.7-4.5-0.9-9.1-1.8-13.6c-1-4.5-1.2-9.1-1.9-13.7c-1.4-8.7-1.1-7.1-16.1-11.6
		c-0.2-0.1-1.4,2.5-2.4,4.5c-3.1,6.4-5.4,13.2-7,20.1c-2.2,7.7-3.1,15.7-3.2,23.7c0.5,6.7,1.6,13.4,3,20c2,7.1,3.4,14.5,4.4,21.8
		c0.5,4.1,0.7,8.2,1.3,12.3c0,0.2,0.5,3.6,0.7,3.7c4.9,2.3,10.1,4.2,15.1,6.3c1.7-7.7,2.5-15.6,3.4-23.5c0.8-6,1-12.1,1.1-18.1
		c0.6-6,1.2-12,1.5-18l-14.3-7.1l0,0c-0.3,6-0.9,12.1-1.6,18.1c-0.1,6-0.2,12.1-0.9,18.1c-0.8,7.6-1.7,15.2-3.4,22.7
		c4.6,2.7,9.2,5.5,13.9,8.1c0.3,0.2-0.5-0.5-0.6-0.8c-0.3-0.8-0.4-1.7-0.6-2.6c-0.7-4.1-0.9-8.3-1.4-12.4c-1-7.3-2.1-14.7-4.2-21.8
		c-1.5-6.5-2.7-13.1-3.3-19.8c0-7.9,0.9-15.7,3.1-23.4c1.6-6.8,3.7-13.5,6.9-19.8c0.4-0.8,0.8-1.6,1.2-2.4c0.3-0.5,1.3-1,0.9-1.3
		c-4.3-3-9.2-5.1-13.7-7.8c-0.2-0.1,0.6,0,0.7,0.2c0.6,1.2,0.1,2.8,0.7,3.9c0.8,4.6,1,9.2,1.9,13.7c0.9,4.5,1.2,9,1.9,13.6
		c0.7,4.6,0.9,9.2,1.3,13.9c0.6,5.6,1.5,11.3,1.2,16.9c0,4.7,0,9.4,0,14.1c-0.1,4.1-0.1,8.1-0.7,12.2c-0.7,3.8-1.8,7.5-2.3,11.3
		c-0.8,4.1-1.7,8.2-2.1,12.4c-0.8,5.5-0.5,11-0.2,16.5c0.5,9.8,1.3,19.5,1.8,29.2c0.1,9.9,0.4,19.7,1.2,29.6
		c0.6,8.7,0.7,17.4,0.5,26.1c0,8.5,0,17,0,25.5c0,6.5,0,12.9-0.1,19.4c-0.2,5.1-0.8,10.2-2.5,15c-2.6,6.6-5.7,12.9-9.2,19.1
		c-2.7,7.8-1.1,15.4-0.6,23.5c2,21.3,4.7,42.5,8.1,63.7c0.1,0.4,2.7,18.3,2.9,19.9c0.3,2.1-0.7,4.7,0.7,6.2
		c4.1,4.4,9.6,7.4,14.9,10.4c1.9,1-3.9-10-0.1-6.2c-0.1-10.9,0-21.7,0-32.6c0-10,0-19.9,0-29.9c0-11.6-0.1-23.2-0.1-34.8
		c0-8.3,0-16.7,0.2-25c0-1.1,1-2.6,0.1-3.3c-4.3-3.5-9.7-5.5-14.6-8.3c0.4,4.8-0.1,9.6,0.1,14.4c-0.2,7.7-0.7,2.1,14.5,10.6
		c0.1,0,0-0.1-0.1-0.2c0-0.5,0-1-0.1-1.5c0-0.9,0-1.9,0-2.8c0-1.2,0-2.4,0-3.5c0-6.4,0.1-12.9-0.1-19.3c-0.3-6.2-0.8-12.4-1.7-18.6
		c-0.9-8.3-1.2-16.8-2.7-25c-1.3-9.4-2.3-18.8-3.4-28.2c-0.9-8.1-1.5-16.3-1.6-24.4c0-7.3,0-14.7,0-22c0.1-8.8,0.2-17.7,0.8-26.5
		c0.8-11.3,2-22.6,4.2-33.7c-4.7-3-9.4-6-14-9c-0.1-0.1,0.4,0.1,0.4,0.3c0.1,0.6,0,1.3,0,1.9c0,1.3,0,3.5,0,4.9c0,0.8,0,1.6,0,2.4
		c0,5.5,0,10.9,0,16.4c0.1,5.6,0,11.2,0.7,16.8c0.8,6.9,1.7,13.8,1.7,20.7c0.3,5.2,1.2,10.3,1.3,15.4c0,4.2,0,8.3,0.2,12.5
		c0.3,5.2,0.9,10.5,1.8,15.6c0.8,5.8,1.1,11.7,2,17.5c0.1,4.7,0.2,9.5,1.2,14.1c0.8,4.2,0.7,8.5,0.6,12.8c0,5.8-0.1,11.5-0.6,17.3
		c-0.5,5.4-1.5,10.8-1.6,16.2c-0.5,4.1-1.4,7.9-3.7,11.5c-2.1,5.1-4.5,10-6.2,15.1c-2.7,7.2-6.5,13.2-11.5,19.2
		c-6,8.7-12.3,17.6-11.8,28.5c0.7,13,2.1,26.5,9.2,37.9c1.1,1.5,1.8,3.3,3.3,4.4c6.1,4.4,18.2,14.1,28.2,12.8c1-0.1,2-0.6,3-0.8
		c0.5-0.5,1.2-0.9,1.5-1.5c2.1-3.3,0.3-8,0.8-11.5c-0.1-8.3-0.1-16.7-0.1-25c0-8.7,0-17.4,0-26.1c0-7.6,0-15.2,0.5-22.7
		c0.5-6.8,1.2-13.6,2.9-20.2L3579.2,3260.7L3579.2,3260.7z"/>
	<rect id="rect2756" x="-58.5" y="-84.5" class="st0" width="6458.5" height="4002.8"/>
</a>
</svg>
